<svg width="188" height="24" viewBox="0 0 188 24" fill="none" xmlns="http://www.w3.org/2000/svg">
<path d="M180.304 10.1679C176.029 9.15429 175.016 8.39416 175.016 6.68377V6.62039C175.016 5.16351 176.345 3.99163 178.626 3.99163C180.368 3.99163 182.015 4.56163 183.724 5.67013C184.041 5.86026 184.358 5.95513 184.738 5.95513C185.751 5.95513 186.575 5.16351 186.575 4.14987C186.575 3.38974 186.163 2.85124 185.72 2.59773C183.724 1.26721 181.476 0.53896 178.689 0.53896C174.287 0.53896 171.121 3.16773 171.121 6.96877V7.03215C171.121 11.1182 173.781 12.5117 178.499 13.6525C182.616 14.6023 183.503 15.4577 183.503 17.0414V17.1048C183.503 18.7522 181.983 19.8922 179.576 19.8922C177.169 19.8922 175.206 19.0683 173.369 17.6114C173.116 17.4216 172.768 17.263 172.229 17.263C171.215 17.263 170.392 18.055 170.392 19.0683C170.392 19.702 170.709 20.2405 171.152 20.5574C173.622 22.3946 176.473 23.3448 179.481 23.3448C184.136 23.3448 187.398 20.8739 187.398 16.7245V16.6615C187.398 12.9872 184.991 11.3083 180.304 10.1679ZM159.912 10.6112L166.816 3.95974C167.259 3.54799 167.512 3.10435 167.512 2.50247C167.512 1.5526 166.784 0.697206 165.707 0.697206C165.01 0.697206 164.536 0.950715 164.092 1.42584L153.578 12.0051V2.62961C153.578 1.5526 152.723 0.697206 151.647 0.697206C150.538 0.697206 149.683 1.5526 149.683 2.62961V21.2542C149.683 22.3308 150.538 23.1862 151.647 23.1862C152.723 23.1862 153.578 22.3308 153.578 21.2542V16.6615L157.189 13.1774L164.314 22.2678C164.726 22.8059 165.201 23.1862 165.961 23.1862C167.069 23.1862 167.924 22.3627 167.924 21.2857C167.924 20.6842 167.703 20.3039 167.386 19.8922L159.912 10.6112ZM143.761 17.2315C143.286 17.2315 142.874 17.4216 142.589 17.6748C140.974 19.0368 139.391 19.7969 137.047 19.7969C132.804 19.7969 129.732 16.2812 129.732 11.9417V11.8783C129.732 7.53877 132.836 4.05461 137.047 4.05461C139.169 4.05461 140.816 4.81474 142.336 6.0504C142.589 6.24013 142.97 6.43026 143.508 6.43026C144.584 6.43026 145.44 5.60676 145.44 4.52974C145.44 3.83299 145.091 3.29448 144.68 2.97799C142.748 1.48922 140.5 0.475585 137.079 0.475585C130.366 0.475585 125.647 5.63864 125.647 11.9417V12.0051C125.647 18.3719 130.461 23.4082 136.921 23.4082C140.5 23.4082 142.874 22.2678 144.965 20.4307C145.313 20.1142 145.598 19.639 145.598 19.0368C145.598 18.055 144.743 17.2315 143.761 17.2315ZM119.092 0.697206C117.984 0.697206 117.129 1.5526 117.129 2.62961V21.2542C117.129 22.3308 117.984 23.1862 119.092 23.1862C120.168 23.1862 121.023 22.3308 121.023 21.2542V2.62961C121.023 1.5526 120.168 0.697206 119.092 0.697206ZM108.483 8.14105C108.483 10.3896 106.709 11.8468 103.923 11.8468H98.2223V4.40299H103.891C106.773 4.40299 108.483 5.70162 108.483 8.07728V8.14105ZM104.208 0.855844H96.2907C95.1826 0.855844 94.3272 1.71084 94.3272 2.81935V21.2542C94.3272 22.3308 95.1826 23.1862 96.2907 23.1862C97.3677 23.1862 98.2223 22.3308 98.2223 21.2542V15.2995H103.131L108.515 22.1725C108.958 22.7744 109.528 23.1862 110.415 23.1862C111.365 23.1862 112.283 22.4579 112.283 21.3805C112.283 20.779 112.03 20.3673 111.65 19.8922L107.406 14.539C110.383 13.6206 112.441 11.4666 112.441 7.91903V7.85565C112.441 5.92364 111.776 4.27663 110.604 3.07286C109.179 1.67935 106.995 0.855844 104.208 0.855844ZM88.9118 0.855844H74.1862C73.173 0.855844 72.381 1.67935 72.381 2.6611C72.381 3.64286 73.173 4.46676 74.1862 4.46676H79.5697V21.2542C79.5697 22.3308 80.4566 23.1862 81.5329 23.1862C82.6099 23.1862 83.4968 22.3308 83.4968 21.2542V4.46676H88.9118C89.8935 4.46676 90.6851 3.64286 90.6851 2.6611C90.6851 1.67935 89.8935 0.855844 88.9118 0.855844ZM70.9591 11.4351H65.0052C63.992 11.4351 63.137 12.2901 63.137 13.3356C63.137 14.3492 63.992 15.2042 65.0052 15.2042H70.9591C71.9724 15.2042 72.8274 14.3492 72.8274 13.3356C72.8274 12.2901 71.9724 11.4351 70.9591 11.4351ZM53.0025 10.1679C48.7275 9.15429 47.7139 8.39416 47.7139 6.68377V6.62039C47.7139 5.16351 49.044 3.99163 51.3244 3.99163C53.0659 3.99163 54.7129 4.56163 56.4229 5.67013C56.7394 5.86026 57.0563 5.95513 57.4362 5.95513C58.4494 5.95513 59.2729 5.16351 59.2729 4.14987C59.2729 3.38974 58.8612 2.85124 58.4179 2.59773C56.4229 1.26721 54.1744 0.53896 51.3874 0.53896C46.9856 0.53896 43.8188 3.16773 43.8188 6.96877V7.03215C43.8188 11.1182 46.479 12.5117 51.1977 13.6525C55.3144 14.6023 56.2013 15.4577 56.2013 17.0414V17.1048C56.2013 18.7522 54.681 19.8922 52.2743 19.8922C49.8675 19.8922 47.904 19.0683 46.0673 17.6114C45.8142 17.4216 45.4658 17.263 44.9273 17.263C43.914 17.263 43.0905 18.055 43.0905 19.0683C43.0905 19.702 43.4074 20.2405 43.8506 20.5574C46.3208 22.3946 49.1708 23.3448 52.1794 23.3448C56.8347 23.3448 60.096 20.8739 60.096 16.7245V16.6615C60.096 12.9872 57.6897 11.3083 53.0025 10.1679ZM33.3682 10.1679C29.0932 9.15429 28.0796 8.39416 28.0796 6.68377V6.62039C28.0796 5.16351 29.4097 3.99163 31.6897 3.99163C33.432 3.99163 35.0786 4.56163 36.7886 5.67013C37.1051 5.86026 37.422 5.95513 37.8019 5.95513C38.8151 5.95513 39.6386 5.16351 39.6386 4.14987C39.6386 3.38974 39.2269 2.85124 38.7836 2.59773C36.7886 1.26721 34.5401 0.53896 31.7531 0.53896C27.3513 0.53896 24.1845 3.16773 24.1845 6.96877V7.03215C24.1845 11.1182 26.8447 12.5117 31.5634 13.6525C35.6801 14.6023 36.5666 15.4577 36.5666 17.0414V17.1048C36.5666 18.7522 35.0467 19.8922 32.64 19.8922C30.2332 19.8922 28.2697 19.0683 26.433 17.6114C26.1799 17.4216 25.8315 17.263 25.293 17.263C24.2797 17.263 23.4562 18.055 23.4562 19.0683C23.4562 19.702 23.7727 20.2405 24.2163 20.5574C26.6865 22.3946 29.5365 23.3448 32.5451 23.3448C37.2 23.3448 40.4617 20.8739 40.4617 16.7245V16.6615C40.4617 12.9872 38.0554 11.3083 33.3682 10.1679ZM18.8643 17.2315C18.3892 17.2315 17.9774 17.4216 17.6924 17.6748C16.0773 19.0368 14.4941 19.7969 12.1507 19.7969C7.90716 19.7969 4.83515 16.2812 4.83515 11.9417V11.8783C4.83515 7.53877 7.93865 4.05461 12.1507 4.05461C14.2724 4.05461 15.9191 4.81474 17.4389 6.0504C17.6924 6.24013 18.0727 6.43026 18.6108 6.43026C19.6874 6.43026 20.5424 5.60676 20.5424 4.52974C20.5424 3.83299 20.1941 3.29448 19.7823 2.97799C17.8507 1.48922 15.6022 0.475585 12.1822 0.475585C5.46853 0.475585 0.749878 5.63864 0.749878 11.9417V12.0051C0.749878 18.3719 5.56339 23.4082 12.0239 23.4082C15.6022 23.4082 17.9774 22.2678 20.0673 20.4307C20.4157 20.1142 20.7011 19.639 20.7011 19.0368C20.7011 18.055 19.8457 17.2315 18.8643 17.2315Z" fill="black"/>
</svg>
