<svg width="132" height="25" viewBox="0 0 132 25" fill="none" xmlns="http://www.w3.org/2000/svg">
<path d="M70.8893 4.84349L68.5074 0.25H84.7831V24.5785H79.9061V4.84349H70.8893Z" fill="black"/>
<path d="M91.9282 4.84537V10.006H101.115V14.5427H91.9849V20.1003H102.136V24.6938L87.1646 24.6371V0.308594H102.023V4.84537H91.9282Z" fill="black"/>
<path d="M51.3237 24.6352V0.25H56.6544V20.0417H65.8981V24.6352H51.3237Z" fill="black"/>
<path d="M73.1009 24.6352H68.3372V15.108L60.0576 0.25H65.5018L70.719 10.3443L72.1368 7.50885H77.2974L73.1009 15.108V24.6352Z" fill="black"/>
<path d="M35.8427 15.4482H21.4952C20.9719 17.4283 20.5032 18.3786 19.4536 19.985H22.8562L21.2116 24.6352H26.4289L27.9034 19.985H37.3739L38.8483 24.6352H44.0656L35.6159 0.25H29.6614L25.238 12.953H30.2852L32.667 5.80755L35.8427 15.4482Z" fill="black"/>
<path d="M19.4536 20.0436C17.1519 22.8514 15.0302 24.0133 11.5142 24.7505H0.625977V0.308594H11.174C18.4895 0.762272 23.1964 7.96441 21.4952 15.3367H16.7315C18.5462 10.0627 15.5406 5.52589 11.174 4.84537H5.33288V20.0436H19.4536Z" fill="black"/>
<rect x="44.0652" y="0.25" width="4.87704" height="24.3852" fill="black"/>
<path d="M131.286 0.25H125.785L116.938 12.1023L126.182 24.6352H131.626L122.326 12.0456L131.286 0.25Z" fill="black"/>
<path d="M117.675 0.25H123.175L114.215 12.0456L123.516 24.6352H118.072L109.395 13.153V24.6352H104.631V0.25H109.395V11.0653L117.675 0.25Z" fill="black"/>
</svg>
