<svg width="109" height="47" viewBox="0 0 109 47" fill="none" xmlns="http://www.w3.org/2000/svg">
<path d="M9.76846 11.8272H9.67753C9.58054 12.4697 9.25319 13.0032 8.69549 13.4275C8.13779 13.8519 7.38005 14.064 6.42226 14.064C5.69483 14.064 5.01589 13.9246 4.38545 13.6458C3.75501 13.3669 3.20337 12.9547 2.73054 12.4091C2.25771 11.8635 1.88793 11.1846 1.6212 10.3723C1.35448 9.56001 1.22111 8.62041 1.22111 7.5535C1.22111 6.4866 1.36054 5.54094 1.63939 4.71651C1.91824 3.89209 2.3062 3.20102 2.80328 2.64333C3.31248 2.08563 3.91868 1.66129 4.62186 1.37032C5.32505 1.07934 6.10704 0.933857 6.96784 0.933857C8.10748 0.933857 9.08952 1.1824 9.91394 1.67948C10.7384 2.16443 11.387 2.89793 11.8598 3.87996L9.60479 5.17116C9.4108 4.67408 9.10771 4.2558 8.69549 3.91634C8.28328 3.56474 7.7074 3.38895 6.96784 3.38895C6.10704 3.38895 5.42204 3.63748 4.91284 4.13456C4.40364 4.63164 4.14903 5.41364 4.14903 6.48054V8.51735C4.14903 9.57213 4.40364 10.3541 4.91284 10.8633C5.42204 11.3604 6.10704 11.6089 6.96784 11.6089C7.30731 11.6089 7.62859 11.5726 7.93169 11.4998C8.23479 11.415 8.50151 11.2937 8.73186 11.1361C8.96222 10.9664 9.13802 10.7663 9.25925 10.536C9.39262 10.3056 9.4593 10.0328 9.4593 9.71762V9.08111H7.09514V6.77151H12.0962V13.8458H9.76846V11.8272Z" fill="black"/>
<path d="M18.1476 14.064C17.4444 14.064 16.814 13.9489 16.2563 13.7185C15.7107 13.4881 15.2439 13.1547 14.8559 12.7183C14.4801 12.2818 14.1891 11.7544 13.983 11.1361C13.7769 10.5178 13.6739 9.82673 13.6739 9.06293C13.6739 8.29912 13.7769 7.60806 13.983 6.98974C14.1891 6.37142 14.4801 5.8501 14.8559 5.42576C15.2439 4.9893 15.7107 4.65589 16.2563 4.42554C16.814 4.19518 17.4444 4.08001 18.1476 4.08001C18.8508 4.08001 19.4752 4.19518 20.0207 4.42554C20.5784 4.65589 21.0452 4.9893 21.421 5.42576C21.809 5.8501 22.106 6.37142 22.3121 6.98974C22.5182 7.60806 22.6213 8.29912 22.6213 9.06293C22.6213 9.82673 22.5182 10.5178 22.3121 11.1361C22.106 11.7544 21.809 12.2818 21.421 12.7183C21.0452 13.1547 20.5784 13.4881 20.0207 13.7185C19.4752 13.9489 18.8508 14.064 18.1476 14.064ZM18.1476 11.9363C18.681 11.9363 19.0932 11.7726 19.3842 11.4453C19.6752 11.1179 19.8207 10.6512 19.8207 10.045V8.09908C19.8207 7.49288 19.6752 7.02611 19.3842 6.69877C19.0932 6.37142 18.681 6.20775 18.1476 6.20775C17.6141 6.20775 17.2019 6.37142 16.9109 6.69877C16.62 7.02611 16.4745 7.49288 16.4745 8.09908V10.045C16.4745 10.6512 16.62 11.1179 16.9109 11.4453C17.2019 11.7726 17.6141 11.9363 18.1476 11.9363Z" fill="black"/>
<path d="M26.8487 13.8458C25.9272 13.8458 25.2483 13.6215 24.8118 13.1729C24.3875 12.7243 24.1753 12.0757 24.1753 11.227V0.388282H26.8668V11.7544H28.0671V13.8458H26.8487Z" fill="black"/>
<path d="M35.1729 12.2455H35.082C35.0093 12.5001 34.8941 12.7425 34.7365 12.9729C34.5789 13.1911 34.3849 13.3851 34.1545 13.5548C33.9363 13.7124 33.6817 13.8337 33.3907 13.9185C33.1119 14.0155 32.8209 14.064 32.5178 14.064C31.3054 14.064 30.3901 13.6397 29.7717 12.791C29.1534 11.9302 28.8443 10.6875 28.8443 9.06293C28.8443 7.43833 29.1534 6.20169 29.7717 5.35302C30.3901 4.50434 31.3054 4.08001 32.5178 4.08001C33.1361 4.08001 33.6817 4.24974 34.1545 4.58921C34.6395 4.92868 34.9487 5.36514 35.082 5.89859H35.1729V0.388282H37.8644V13.8458H35.1729V12.2455ZM33.4089 11.8817C33.9181 11.8817 34.3364 11.7605 34.6637 11.518C35.0032 11.2634 35.1729 10.9179 35.1729 10.4814V7.66262C35.1729 7.22616 35.0032 6.88669 34.6637 6.64421C34.3364 6.38961 33.9181 6.26231 33.4089 6.26231C32.8997 6.26231 32.4754 6.44417 32.1359 6.80788C31.8086 7.15948 31.6449 7.63837 31.6449 8.24457V9.89948C31.6449 10.5057 31.8086 10.9906 32.1359 11.3543C32.4754 11.7059 32.8997 11.8817 33.4089 11.8817Z" fill="black"/>
<path d="M44.0003 14.064C43.2729 14.064 42.6243 13.9489 42.0544 13.7185C41.4846 13.476 40.9997 13.1426 40.5996 12.7183C40.2116 12.2818 39.9146 11.7544 39.7085 11.1361C39.5145 10.5178 39.4175 9.82673 39.4175 9.06293C39.4175 8.31125 39.5145 7.63231 39.7085 7.02611C39.9024 6.40779 40.1874 5.88041 40.5632 5.44395C40.9512 5.00748 41.424 4.67408 41.9817 4.44372C42.5394 4.20125 43.1759 4.08001 43.8912 4.08001C44.6793 4.08001 45.3521 4.21337 45.9098 4.4801C46.4797 4.74682 46.9404 5.10448 47.292 5.55306C47.6557 6.00164 47.9163 6.52297 48.0739 7.11704C48.2437 7.69899 48.3286 8.31125 48.3286 8.95381V9.75399H42.1999V9.89948C42.1999 10.5299 42.3697 11.0331 42.7091 11.4089C43.0486 11.7726 43.582 11.9545 44.3095 11.9545C44.8672 11.9545 45.3218 11.8454 45.6734 11.6271C46.025 11.3968 46.3524 11.124 46.6555 10.8088L48.0012 12.4819C47.5769 12.9789 47.0192 13.3669 46.3281 13.6458C45.6492 13.9246 44.8732 14.064 44.0003 14.064ZM43.9458 6.06226C43.4002 6.06226 42.9698 6.24412 42.6546 6.60784C42.3515 6.95943 42.1999 7.43226 42.1999 8.02633V8.17182H45.5461V8.00815C45.5461 7.4262 45.4128 6.95943 45.146 6.60784C44.8914 6.24412 44.4913 6.06226 43.9458 6.06226Z" fill="black"/>
<path d="M49.8657 13.8458V4.29824H52.5572V5.91678H52.6663C52.836 5.4197 53.1331 4.9893 53.5574 4.62558C53.9817 4.26187 54.5698 4.08001 55.3214 4.08001C56.3035 4.08001 57.043 4.40735 57.5401 5.06204C58.0493 5.71673 58.3039 6.65027 58.3039 7.86266V13.8458H55.6124V8.08089C55.6124 7.46257 55.5154 7.00793 55.3214 6.71695C55.1275 6.41386 54.7819 6.26231 54.2848 6.26231C54.0666 6.26231 53.8544 6.29262 53.6483 6.35324C53.4422 6.40173 53.2543 6.4866 53.0846 6.60784C52.927 6.72908 52.7997 6.88063 52.7027 7.06249C52.6057 7.23222 52.5572 7.43226 52.5572 7.66262V13.8458H49.8657Z" fill="black"/>
<path d="M68.8341 8.31731L67.1792 10.3178V13.8458H64.4149V1.15209H67.1792V7.18979H67.2883L69.0887 4.7347L71.9439 1.15209H75.0718L70.7981 6.37142L75.4537 13.8458H72.1985L68.8341 8.31731Z" fill="black"/>
<path d="M77.9141 3.27983C77.3685 3.27983 76.9684 3.15859 76.7138 2.91611C76.4713 2.66151 76.3501 2.34023 76.3501 1.95226V1.55217C76.3501 1.16421 76.4713 0.84899 76.7138 0.606511C76.9684 0.35191 77.3685 0.224609 77.9141 0.224609C78.4596 0.224609 78.8537 0.35191 79.0962 0.606511C79.3508 0.84899 79.4781 1.16421 79.4781 1.55217V1.95226C79.4781 2.34023 79.3508 2.66151 79.0962 2.91611C78.8537 3.15859 78.4596 3.27983 77.9141 3.27983ZM76.5683 4.29824H79.2598V13.8458H76.5683V4.29824Z" fill="black"/>
<path d="M84.7544 13.8458C83.8208 13.8458 83.1116 13.6094 82.6266 13.1366C82.1538 12.6637 81.9174 11.9727 81.9174 11.0634V6.38961H80.5716V4.29824H81.2445C81.6082 4.29824 81.8568 4.21337 81.9901 4.04364C82.1235 3.86178 82.1902 3.60718 82.1902 3.27983V1.71585H84.6089V4.29824H86.5002V6.38961H84.6089V11.7544H86.3547V13.8458H84.7544Z" fill="black"/>
<path d="M91.2636 13.8458C90.3301 13.8458 89.6208 13.6094 89.1359 13.1366C88.663 12.6637 88.4266 11.9727 88.4266 11.0634V6.38961H87.0809V4.29824H87.7538C88.1175 4.29824 88.366 4.21337 88.4994 4.04364C88.6327 3.86178 88.6994 3.60718 88.6994 3.27983V1.71585H91.1181V4.29824H93.0095V6.38961H91.1181V11.7544H92.864V13.8458H91.2636Z" fill="black"/>
<path d="M100.353 4.29824H102.863L99.1892 15.3189C98.9468 16.0584 98.6012 16.604 98.1526 16.9556C97.7162 17.3072 97.0857 17.483 96.2613 17.483H94.5882V15.3916H96.3886L96.716 14.3368L93.3698 4.29824H96.0431L97.4434 8.75377L98.1345 11.518H98.2436L98.9528 8.75377L100.353 4.29824Z" fill="black"/>
<path d="M9.53204 31.1657L8.62275 28.1468H4.38545L3.47616 31.1657H0.675537L4.85828 18.4719H8.27722L12.4054 31.1657H9.53204ZM6.53138 20.9816H6.44045L5.04014 25.8008H7.94987L6.53138 20.9816Z" fill="black"/>
<path d="M12.3879 21.6181H14.9885L15.916 25.4735L16.5707 28.3832H16.6434L17.4072 25.4735L18.4984 21.6181H20.9535L22.0628 25.4735L22.8448 28.3832H22.9175L23.5722 25.4735L24.4997 21.6181H26.9912L24.3542 31.1657H21.5354L20.3715 27.1284L19.6986 24.6551H19.6441L18.9894 27.1284L17.8255 31.1657H15.0612L12.3879 21.6181Z" fill="black"/>
<path d="M35.032 31.1657C34.547 31.1657 34.1409 31.0141 33.8135 30.711C33.4983 30.4079 33.2983 30.0018 33.2134 29.4926H33.1043C32.9588 30.1109 32.6375 30.5837 32.1405 30.9111C31.6434 31.2263 31.0311 31.3839 30.3037 31.3839C29.3459 31.3839 28.6124 31.1293 28.1032 30.6201C27.594 30.1109 27.3394 29.438 27.3394 28.6014C27.3394 27.5952 27.7031 26.8495 28.4305 26.3646C29.1701 25.8675 30.1703 25.619 31.4312 25.619H32.9406V25.0188C32.9406 24.5581 32.8194 24.1944 32.5769 23.9277C32.3344 23.6488 31.9283 23.5094 31.3585 23.5094C30.825 23.5094 30.4007 23.6246 30.0855 23.8549C29.7702 24.0853 29.5096 24.346 29.3035 24.6369L27.7031 23.2184C28.0911 22.6486 28.576 22.2061 29.158 21.8909C29.752 21.5635 30.5522 21.3999 31.5585 21.3999C32.9164 21.3999 33.9348 21.6969 34.6137 22.291C35.2927 22.885 35.6321 23.7519 35.6321 24.8915V29.0743H36.5232V31.1657H35.032ZM31.3039 29.5107C31.7525 29.5107 32.1344 29.4137 32.4496 29.2198C32.777 29.0258 32.9406 28.7106 32.9406 28.2741V27.1466H31.6313C30.5765 27.1466 30.0491 27.5042 30.0491 28.2195V28.4923C30.0491 28.8439 30.1582 29.1046 30.3764 29.2743C30.5947 29.4319 30.9038 29.5107 31.3039 29.5107Z" fill="black"/>
<path d="M37.966 31.1657V21.6181H40.6575V23.6913H40.7485C40.797 23.4245 40.8818 23.1699 41.0031 22.9275C41.1243 22.6729 41.2819 22.4486 41.4759 22.2546C41.682 22.0606 41.9245 21.9091 42.2033 21.7999C42.4822 21.6787 42.8095 21.6181 43.1854 21.6181H43.6582V24.1277H42.9853C42.1973 24.1277 41.6093 24.2308 41.2213 24.4369C40.8455 24.643 40.6575 25.0249 40.6575 25.5826V31.1657H37.966Z" fill="black"/>
<path d="M50.7396 29.5653H50.6487C50.5759 29.8199 50.4607 30.0624 50.3031 30.2927C50.1455 30.511 49.9515 30.7049 49.7212 30.8747C49.503 31.0323 49.2484 31.1535 48.9574 31.2384C48.6785 31.3354 48.3876 31.3839 48.0845 31.3839C46.8721 31.3839 45.9567 30.9595 45.3384 30.1109C44.7201 29.2501 44.4109 28.0074 44.4109 26.3828C44.4109 24.7582 44.7201 23.5215 45.3384 22.6729C45.9567 21.8242 46.8721 21.3999 48.0845 21.3999C48.7028 21.3999 49.2484 21.5696 49.7212 21.9091C50.2061 22.2485 50.5153 22.685 50.6487 23.2184H50.7396V17.7081H53.4311V31.1657H50.7396V29.5653ZM48.9756 29.2016C49.4848 29.2016 49.903 29.0803 50.2304 28.8379C50.5699 28.5833 50.7396 28.2377 50.7396 27.8013V24.9825C50.7396 24.546 50.5699 24.2065 50.2304 23.9641C49.903 23.7095 49.4848 23.5822 48.9756 23.5822C48.4664 23.5822 48.042 23.764 47.7026 24.1277C47.3752 24.4793 47.2115 24.9582 47.2115 25.5644V27.2193C47.2115 27.8255 47.3752 28.3105 47.7026 28.6742C48.042 29.0258 48.4664 29.2016 48.9756 29.2016Z" fill="black"/>
<path d="M58.8214 31.3839C57.8999 31.3839 57.124 31.2384 56.4936 30.9474C55.8631 30.6443 55.2994 30.22 54.8023 29.6744L56.3845 28.0741C56.7239 28.4499 57.0998 28.7469 57.512 28.9652C57.9242 29.1834 58.391 29.2925 58.9123 29.2925C59.4457 29.2925 59.8155 29.2137 60.0216 29.0561C60.2277 28.8864 60.3308 28.6621 60.3308 28.3832C60.3308 27.9346 60.0095 27.6679 59.3669 27.583L58.3303 27.4557C56.1844 27.189 55.1114 26.207 55.1114 24.5096C55.1114 24.0489 55.1963 23.6307 55.366 23.2548C55.5479 22.8668 55.7964 22.5395 56.1117 22.2728C56.439 21.9939 56.827 21.7818 57.2756 21.6363C57.7363 21.4787 58.2515 21.3999 58.8214 21.3999C59.3184 21.3999 59.7549 21.4362 60.1307 21.509C60.5187 21.5696 60.8582 21.6666 61.1491 21.7999C61.4522 21.9212 61.725 22.0788 61.9675 22.2728C62.2221 22.4546 62.4706 22.6607 62.7131 22.8911L61.1673 24.4733C60.8642 24.1702 60.5187 23.9338 60.1307 23.764C59.7549 23.5822 59.3669 23.4912 58.9668 23.4912C58.5061 23.4912 58.1788 23.564 57.9848 23.7095C57.7908 23.8549 57.6938 24.0489 57.6938 24.2914C57.6938 24.546 57.7605 24.7461 57.8939 24.8915C58.0394 25.0249 58.3061 25.1219 58.6941 25.1825L59.767 25.328C61.8645 25.6068 62.9132 26.5646 62.9132 28.2014C62.9132 28.6621 62.8162 29.0864 62.6222 29.4744C62.4282 29.8623 62.1494 30.2018 61.7856 30.4928C61.4341 30.7716 61.0037 30.9899 60.4945 31.1475C59.9974 31.3051 59.4397 31.3839 58.8214 31.3839Z" fill="black"/>
<path d="M77.0842 31.1657H68.1004V28.6742L72.0103 25.328C72.3619 25.0249 72.659 24.7521 72.9015 24.5096C73.1439 24.255 73.3379 24.0126 73.4834 23.7822C73.641 23.5397 73.7501 23.3033 73.8107 23.073C73.8835 22.8426 73.9199 22.5941 73.9199 22.3273V22.0727C73.9199 21.8303 73.8714 21.6181 73.7744 21.4362C73.6774 21.2544 73.5501 21.1028 73.3925 20.9816C73.2349 20.8603 73.053 20.7694 72.8469 20.7088C72.6529 20.6482 72.4529 20.6179 72.2468 20.6179C71.9437 20.6179 71.6769 20.6664 71.4466 20.7634C71.2284 20.8603 71.0344 20.9937 70.8646 21.1634C70.707 21.3211 70.5737 21.509 70.4646 21.7272C70.3554 21.9333 70.2706 22.1576 70.21 22.4001L67.8276 21.4908C67.9731 21.0543 68.1731 20.6421 68.4277 20.2541C68.6823 19.8541 68.9976 19.5085 69.3734 19.2176C69.7614 18.9145 70.216 18.678 70.7373 18.5083C71.2587 18.3386 71.8467 18.2537 72.5014 18.2537C73.1924 18.2537 73.8047 18.3507 74.3381 18.5447C74.8716 18.7387 75.3202 19.0054 75.6839 19.3449C76.0597 19.6843 76.3446 20.0905 76.5386 20.5633C76.7326 21.024 76.8296 21.5272 76.8296 22.0727C76.8296 22.6183 76.7387 23.1154 76.5568 23.564C76.375 24.0126 76.1264 24.4369 75.8112 24.837C75.5081 25.2249 75.1504 25.5947 74.7382 25.9463C74.326 26.2979 73.8956 26.6556 73.447 27.0193L71.0829 28.8742H77.0842V31.1657Z" fill="black"/>
<path d="M83.0602 31.3839C81.3993 31.3839 80.1687 30.808 79.3685 29.6562C78.5683 28.5045 78.1683 26.892 78.1683 24.8188C78.1683 22.7456 78.5683 21.1331 79.3685 19.9814C80.1687 18.8296 81.3993 18.2537 83.0602 18.2537C84.7212 18.2537 85.9518 18.8296 86.752 19.9814C87.5521 21.1331 87.9522 22.7456 87.9522 24.8188C87.9522 26.892 87.5521 28.5045 86.752 29.6562C85.9518 30.808 84.7212 31.3839 83.0602 31.3839ZM83.0602 29.0743C83.7877 29.0743 84.2908 28.8076 84.5697 28.2741C84.8485 27.7407 84.9879 26.989 84.9879 26.0191V23.6185C84.9879 22.6486 84.8485 21.8969 84.5697 21.3635C84.2908 20.83 83.7877 20.5633 83.0602 20.5633C82.3328 20.5633 81.8297 20.83 81.5508 21.3635C81.272 21.8969 81.1325 22.6486 81.1325 23.6185V26.0191C81.1325 26.989 81.272 27.7407 81.5508 28.2741C81.8297 28.8076 82.3328 29.0743 83.0602 29.0743Z" fill="black"/>
<path d="M89.8546 31.1657V28.9652H93.2736V20.4542H93.1099L90.5275 23.8368L88.7817 22.4728L91.8187 18.4719H96.0015V28.9652H98.693V31.1657H89.8546Z" fill="black"/>
<path d="M104.142 31.3839C103.39 31.3839 102.717 31.293 102.123 31.1111C101.541 30.9171 101.05 30.6565 100.65 30.3291C100.25 30.0018 99.9407 29.6138 99.7225 29.1652C99.5163 28.7166 99.4133 28.2256 99.4133 27.6922C99.4133 26.8799 99.6376 26.2191 100.086 25.7099C100.535 25.1886 101.141 24.8249 101.905 24.6187V24.4733C101.286 24.2429 100.777 23.8913 100.377 23.4185C99.9892 22.9457 99.7952 22.3395 99.7952 21.5999C99.7952 21.1149 99.8861 20.6664 100.068 20.2541C100.262 19.8419 100.541 19.4903 100.905 19.1994C101.28 18.8963 101.735 18.6659 102.268 18.5083C102.814 18.3386 103.438 18.2537 104.142 18.2537C104.845 18.2537 105.463 18.3386 105.997 18.5083C106.542 18.6659 106.997 18.8963 107.361 19.1994C107.736 19.4903 108.015 19.8419 108.197 20.2541C108.391 20.6664 108.488 21.1149 108.488 21.5999C108.488 22.3395 108.288 22.9457 107.888 23.4185C107.5 23.8913 106.997 24.2429 106.378 24.4733V24.6187C107.142 24.8249 107.748 25.1886 108.197 25.7099C108.646 26.2191 108.87 26.8799 108.87 27.6922C108.87 28.2256 108.761 28.7166 108.543 29.1652C108.336 29.6138 108.033 30.0018 107.633 30.3291C107.233 30.6565 106.736 30.9171 106.142 31.1111C105.56 31.293 104.893 31.3839 104.142 31.3839ZM104.142 29.2925C104.748 29.2925 105.209 29.1531 105.524 28.8742C105.851 28.5833 106.015 28.1832 106.015 27.674V27.3103C106.015 26.8011 105.851 26.407 105.524 26.1282C105.209 25.8372 104.748 25.6917 104.142 25.6917C103.535 25.6917 103.069 25.8372 102.741 26.1282C102.426 26.407 102.268 26.8011 102.268 27.3103V27.674C102.268 28.1832 102.426 28.5833 102.741 28.8742C103.069 29.1531 103.535 29.2925 104.142 29.2925ZM104.142 23.6913C104.724 23.6913 105.166 23.5579 105.469 23.2912C105.772 23.0123 105.924 22.6365 105.924 22.1637V21.8727C105.924 21.3999 105.772 21.0301 105.469 20.7634C105.166 20.4845 104.724 20.3451 104.142 20.3451C103.56 20.3451 103.117 20.4845 102.814 20.7634C102.511 21.0301 102.359 21.3999 102.359 21.8727V22.1637C102.359 22.6365 102.511 23.0123 102.814 23.2912C103.117 23.5579 103.56 23.6913 104.142 23.6913Z" fill="black"/>
<path d="M3.4879 41.5897L2.4695 39.7105H2.43312V46.7545H1.43896V38.292H2.61498L5.70658 43.4568L6.72498 45.336H6.76135V38.292H7.75551V46.7545H6.5795L3.4879 41.5897Z" fill="black"/>
<path d="M14.1452 46.8999C13.5956 46.8999 13.0985 46.807 12.6539 46.6211C12.2175 46.4271 11.8416 46.1483 11.5264 45.7845C11.2193 45.4127 10.9808 44.9561 10.8111 44.4145C10.6414 43.8649 10.5565 43.2345 10.5565 42.5232C10.5565 41.8119 10.6414 41.1855 10.8111 40.644C10.9808 40.1025 11.2193 39.6458 11.5264 39.274C11.8416 38.9022 12.2175 38.6234 12.6539 38.4375C13.0985 38.2435 13.5956 38.1465 14.1452 38.1465C14.6867 38.1465 15.1798 38.2435 15.6243 38.4375C16.0688 38.6234 16.4447 38.9022 16.7518 39.274C17.067 39.6458 17.3095 40.1025 17.4793 40.644C17.649 41.1855 17.7339 41.8119 17.7339 42.5232C17.7339 43.2345 17.649 43.8649 17.4793 44.4145C17.3095 44.9561 17.067 45.4127 16.7518 45.7845C16.4447 46.1483 16.0688 46.4271 15.6243 46.6211C15.1798 46.807 14.6867 46.8999 14.1452 46.8999ZM14.1452 45.9906C14.5089 45.9906 14.8443 45.926 15.1515 45.7967C15.4586 45.6673 15.7213 45.4814 15.9395 45.239C16.1658 44.9965 16.3396 44.7055 16.4608 44.366C16.5821 44.0266 16.6427 43.6467 16.6427 43.2264V41.82C16.6427 41.3997 16.5821 41.0198 16.4608 40.6804C16.3396 40.3409 16.1658 40.0499 15.9395 39.8075C15.7213 39.565 15.4586 39.3791 15.1515 39.2498C14.8443 39.1204 14.5089 39.0558 14.1452 39.0558C13.7815 39.0558 13.446 39.1204 13.1389 39.2498C12.8318 39.3791 12.565 39.565 12.3387 39.8075C12.1205 40.0499 11.9508 40.3409 11.8295 40.6804C11.7083 41.0198 11.6477 41.3997 11.6477 41.82V43.2264C11.6477 43.6467 11.7083 44.0266 11.8295 44.366C11.9508 44.7055 12.1205 44.9965 12.3387 45.239C12.565 45.4814 12.8318 45.6673 13.1389 45.7967C13.446 45.926 13.7815 45.9906 14.1452 45.9906Z" fill="black"/>
<path d="M27.13 39.6256H27.0693L26.354 41.0441L24.3293 44.7298L22.3047 41.0441L21.5893 39.6256H21.5287V46.7545H20.5346V38.292H21.8924L24.3172 42.8506H24.3778L26.8147 38.292H28.1241V46.7545H27.13V39.6256Z" fill="black"/>
<path d="M30.9432 46.7545V45.9058H32.1314V39.1406H30.9432V38.292H34.3379V39.1406H33.1498V45.9058H34.3379V46.7545H30.9432Z" fill="black"/>
<path d="M39.2164 41.5897L38.198 39.7105H38.1617V46.7545H37.1675V38.292H38.3435L41.4351 43.4568L42.4535 45.336H42.4899V38.292H43.4841V46.7545H42.308L39.2164 41.5897Z" fill="black"/>
<path d="M52.0075 46.7545L51.1589 44.2569H47.7399L46.8913 46.7545H45.8607L48.819 38.292H50.1162L53.0744 46.7545H52.0075ZM49.4736 39.2376H49.413L47.9824 43.3598H50.9043L49.4736 39.2376Z" fill="black"/>
<path d="M57.502 39.1891V46.7545H56.4836V39.1891H53.7921V38.292H60.1935V39.1891H57.502Z" fill="black"/>
<path d="M62.5609 46.7545V38.292H67.7257V39.1891H63.5793V42.0261H67.4832V42.9233H63.5793V45.8573H67.7257V46.7545H62.5609Z" fill="black"/>
<path d="M70.5992 38.292H73.4361C73.9615 38.292 74.4384 38.3809 74.8668 38.5587C75.2951 38.7365 75.6589 39.0032 75.9579 39.3589C76.265 39.7064 76.4994 40.1469 76.6611 40.6804C76.8227 41.2057 76.9036 41.82 76.9036 42.5232C76.9036 43.2264 76.8227 43.8447 76.6611 44.3782C76.4994 44.9035 76.265 45.344 75.9579 45.6997C75.6589 46.0472 75.2951 46.3099 74.8668 46.4877C74.4384 46.6655 73.9615 46.7545 73.4361 46.7545H70.5992V38.292ZM73.4361 45.8573C73.7837 45.8573 74.103 45.8007 74.3939 45.6875C74.6849 45.5663 74.9355 45.3925 75.1456 45.1662C75.3558 44.9399 75.5174 44.6651 75.6306 44.3418C75.7518 44.0104 75.8124 43.6346 75.8124 43.2143V41.8321C75.8124 41.4119 75.7518 41.0401 75.6306 40.7168C75.5174 40.3854 75.3558 40.1065 75.1456 39.8802C74.9355 39.6539 74.6849 39.4842 74.3939 39.371C74.103 39.2498 73.7837 39.1891 73.4361 39.1891H71.6176V45.8573H73.4361Z" fill="black"/>
</svg>
