<svg width="49" height="49" viewBox="0 0 49 49" fill="none" xmlns="http://www.w3.org/2000/svg">
<path fill-rule="evenodd" clip-rule="evenodd" d="M24.1455 48.8542C37.4859 48.8542 48.291 38.0769 48.291 24.7709C48.291 11.4648 37.4859 0.6875 24.1455 0.6875C10.8051 0.6875 0 11.4648 0 24.7709C0 38.0769 10.8051 48.8542 24.1455 48.8542ZM20.5237 24.7692H27.3649C29.3569 24.7692 30.9867 23.1436 30.9867 21.1567C30.9867 19.1698 29.3569 17.5442 27.3649 17.5442H20.5237V24.7692ZM15.6946 12.7275H27.3649C32.0331 12.7275 35.8158 16.5006 35.8158 21.1567C35.8158 25.8128 32.0331 29.5859 27.3649 29.5859H20.5237V36.8109H15.6946V12.7275Z" fill="black"/>
</svg>
