<svg width="113" height="27" viewBox="0 0 113 27" fill="none" xmlns="http://www.w3.org/2000/svg">
<g clip-path="url(#clip0)">
<path d="M58.2074 26.9754H47.9619V18.2166C47.9619 17.0376 47.4496 16.027 46.7666 15.1848L42.8392 11.3107C41.9854 10.637 40.9608 10.1316 39.7655 10.1316H37.7164V26.9754H27.471V0.0253906H42.3269C44.5468 0.0253906 46.7666 0.867578 48.3034 2.55195L55.646 9.79477C57.3536 11.3107 58.2074 13.5004 58.2074 15.6901V26.9754ZM102.604 0.0253906V8.78414C102.604 9.9632 102.092 10.9738 101.409 11.816L97.4816 15.6901C96.6278 16.5323 95.6033 16.8691 94.408 16.8691H90.139C91.5051 15.3532 92.3589 13.332 92.3589 11.3107V0.0253906H82.1134V8.78414C82.1134 9.9632 81.6011 10.9738 80.9181 11.816L76.9907 15.6901C76.1369 16.5323 75.1124 16.8691 73.9171 16.8691H71.868V0.0253906H61.6225V26.9754H76.4784C78.6983 26.9754 80.9181 26.1332 82.4549 24.4488L87.2361 19.7326V26.9754H96.9693C99.1892 26.9754 101.409 26.1332 102.946 24.4488L110.288 17.206C111.996 15.6901 112.85 13.5004 112.85 11.3107V0.0253906H102.604ZM24.0558 0.0253906H0.14978V10.1316H6.98008V26.9754H17.2255V10.1316H24.0558" fill="black"/>
</g>
<defs>
<clipPath id="clip0">
<rect width="112.7" height="26.95" fill="white" transform="translate(0.14978 0.0253906)"/>
</clipPath>
</defs>
</svg>
