<svg width="761" height="471" viewBox="0 0 761 471" fill="none" xmlns="http://www.w3.org/2000/svg">
<path d="M611.114 104.365C451.611 -18.818 23.708 31.2704 5.60454 149.855C-45.8959 487.198 269.609 437.107 457.112 464.708C778.116 511.961 788.116 230.612 611.114 104.365Z" fill="#D8FFF8"/>
<path d="M611.114 104.365C451.611 -18.818 23.708 31.2704 5.60454 149.855C-45.8959 487.198 269.609 437.107 457.112 464.708C778.116 511.961 788.116 230.612 611.114 104.365Z" fill="url(#paint0_linear)" fill-opacity="0.1"/>
<path d="M341.116 23.7966C310.973 14.1733 268.86 12.1387 236.616 13.9072C189.212 16.5119 136.695 31.3128 118.483 61.6941C100.271 92.0754 86.9075 126.563 79.5 160.001C70.3734 201.197 63.7746 241.238 44.0773 279.773C29.6481 308.001 17.3319 326.036 16 348.502C14.1829 379.692 37.483 405.907 65.5997 426.019C93.7163 446.13 130.682 456.258 167.592 457.862C187.232 458.709 207.69 457.096 224.938 449.01C243.184 440.487 256.29 425.434 274.612 416.997C291.595 409.186 311.593 407.702 330.894 408.263C355.889 408.954 380.73 412.858 404.892 419.894C431.986 427.841 457.281 439.647 484.321 447.721C511.362 455.794 541.457 459.965 568.732 452.154C594.34 444.824 614.354 427.917 632.354 410.849C661.361 383.413 688.214 353.435 712.638 321.22C728.736 299.911 743.662 277.463 750.447 252.887C763.406 205.894 742.946 153.632 699.48 122.678C663.47 97.0214 615.674 86.5519 568.985 80.667C526.404 75.2339 477.326 75.9022 437.902 60.2091C400.301 45.199 380.472 36.3586 341.116 23.7966Z" fill="#CAE2FF"/>
<path d="M341.116 23.7966C310.973 14.1733 268.86 12.1387 236.616 13.9072C189.212 16.5119 136.695 31.3128 118.483 61.6941C100.271 92.0754 86.9075 126.563 79.5 160.001C70.3734 201.197 63.7746 241.238 44.0773 279.773C29.6481 308.001 17.3319 326.036 16 348.502C14.1829 379.692 37.483 405.907 65.5997 426.019C93.7163 446.13 130.682 456.258 167.592 457.862C187.232 458.709 207.69 457.096 224.938 449.01C243.184 440.487 256.29 425.434 274.612 416.997C291.595 409.186 311.593 407.702 330.894 408.263C355.889 408.954 380.73 412.858 404.892 419.894C431.986 427.841 457.281 439.647 484.321 447.721C511.362 455.794 541.457 459.965 568.732 452.154C594.34 444.824 614.354 427.917 632.354 410.849C661.361 383.413 688.214 353.435 712.638 321.22C728.736 299.911 743.662 277.463 750.447 252.887C763.406 205.894 742.946 153.632 699.48 122.678C663.47 97.0214 615.674 86.5519 568.985 80.667C526.404 75.2339 477.326 75.9022 437.902 60.2091C400.301 45.199 380.472 36.3586 341.116 23.7966Z" fill="url(#paint1_linear)"/>
<defs>
<linearGradient id="paint0_linear" x1="871.5" y1="327.5" x2="543.5" y2="438" gradientUnits="userSpaceOnUse">
<stop/>
<stop offset="1" stop-opacity="0"/>
</linearGradient>
<linearGradient id="paint1_linear" x1="-271.5" y1="-39" x2="653" y2="335.5" gradientUnits="userSpaceOnUse">
<stop stop-color="white"/>
<stop offset="1" stop-color="white" stop-opacity="0"/>
</linearGradient>
</defs>
</svg>
