<svg width="57" height="56" viewBox="0 0 57 56" fill="none" xmlns="http://www.w3.org/2000/svg">
<g opacity="0.5">
<path opacity="0.5" d="M28.7013 55.7766C44.0628 55.7766 56.5158 43.2906 56.5158 27.8883C56.5158 12.486 44.0628 0 28.7013 0C13.3397 0 0.886719 12.486 0.886719 27.8883C0.886719 43.2906 13.3397 55.7766 28.7013 55.7766Z" fill="url(#paint0_linear)"/>
</g>
<path d="M28.7012 55.035C43.738 55.035 55.9278 42.8129 55.9278 27.7362C55.9278 12.6596 43.738 0.4375 28.7012 0.4375C13.6645 0.4375 1.47473 12.6596 1.47473 27.7362C1.47473 42.8129 13.6645 55.035 28.7012 55.035Z" fill="#F5F5F5"/>
<path d="M28.7783 55.1125C34.0987 55.1213 39.304 53.5596 43.7452 50.6221C42.742 45.1258 38.9234 44.8105 38.9234 44.8105H17.8723C17.8723 44.8105 14.2722 45.1065 13.1442 50.1649C17.7211 53.3929 23.1825 55.1212 28.7783 55.1125Z" fill="#1C84FF"/>
<path d="M28.4925 39.2373C35.1586 39.2373 40.5625 33.819 40.5625 27.1352C40.5625 20.4515 35.1586 15.0332 28.4925 15.0332C21.8264 15.0332 16.4225 20.4515 16.4225 27.1352C16.4225 33.819 21.8264 39.2373 28.4925 39.2373Z" fill="#333333"/>
<path opacity="0.1" d="M24.2518 38.1113H32.6737V44.8662C32.6737 45.9857 32.2302 47.0593 31.4407 47.8509C30.6512 48.6424 29.5805 49.0871 28.464 49.0871C27.3475 49.0871 26.2767 48.6424 25.4872 47.8509C24.6978 47.0593 24.2542 45.9857 24.2542 44.8662V38.1113H24.2518Z" fill="black"/>
<path d="M25.0558 37.7988H31.8696C32.0828 37.7988 32.2874 37.8838 32.4381 38.0349C32.5889 38.1861 32.6736 38.3912 32.6736 38.605V44.5537C32.6736 45.6732 32.2301 46.7468 31.4406 47.5384C30.6512 48.3299 29.5804 48.7746 28.4639 48.7746C27.3474 48.7746 26.2766 48.3299 25.4872 47.5384C24.6977 46.7468 24.2542 45.6732 24.2542 44.5537V38.605C24.2541 38.3916 24.3385 38.1869 24.4888 38.0358C24.6391 37.8847 24.843 37.7995 25.0558 37.7988Z" fill="#BE7C5E"/>
<path opacity="0.1" d="M24.2684 41.3002C26.9826 42.3174 29.9704 42.3259 32.6903 41.3243V40.2871H24.2684V41.3002Z" fill="black"/>
<path d="M28.4925 41.8642C35.1586 41.8642 40.5625 36.446 40.5625 29.7622C40.5625 23.0784 35.1586 17.6602 28.4925 17.6602C21.8264 17.6602 16.4225 23.0784 16.4225 29.7622C16.4225 36.446 21.8264 41.8642 28.4925 41.8642Z" fill="#BE7C5E"/>
<path d="M21.1796 24.7716C21.3212 24.2494 21.4988 23.6742 21.9668 23.4023C22.3365 23.1857 22.7949 23.2194 23.2221 23.2411C26.5582 23.424 29.8655 22.6611 33.1104 21.8646C34.9657 21.4098 36.9506 20.8563 38.1506 19.3571C39.3506 17.8578 37.7858 13.146 35.9593 12.5901C34.7593 12.2219 33.3672 12.9078 32.2296 12.3687C31.7232 12.1281 31.3512 11.6781 30.9143 11.3267C30.0191 10.6048 28.8695 10.3136 27.7558 10.0393C26.455 9.71683 25.0486 9.40158 23.8125 9.91897C22.8525 10.3184 22.1517 11.1631 21.242 11.6636C19.5116 12.6262 17.4019 12.1786 15.4194 12.1738C14.7498 12.1738 13.9506 12.3086 13.6842 12.9246C13.5042 13.3433 13.6482 13.8198 13.6674 14.2746C13.725 15.7185 12.5369 16.8423 11.5409 17.8843C10.5449 18.9263 9.60403 20.4135 10.2329 21.7082C10.4729 22.2015 10.9121 22.5745 11.1617 23.063C11.5913 23.9101 11.3753 24.9328 11.5313 25.8689C11.6875 26.5792 11.9522 27.2611 12.3161 27.8903C13.0554 29.3342 16.7683 37.107 18.4747 35.1313C19.3004 34.1687 19.4348 31.3869 19.7684 30.1355C20.2292 28.3371 20.6996 26.5491 21.1796 24.7716Z" fill="#333333"/>
<path d="M19.9052 31.4338C20.5256 31.4338 21.0285 30.4889 21.0285 29.3233C21.0285 28.1578 20.5256 27.2129 19.9052 27.2129C19.2849 27.2129 18.782 28.1578 18.782 29.3233C18.782 30.4889 19.2849 31.4338 19.9052 31.4338Z" fill="#BE7C5E"/>
<defs>
<linearGradient id="paint0_linear" x1="28.7013" y1="55.7766" x2="28.7013" y2="0.00240687" gradientUnits="userSpaceOnUse">
<stop stop-color="#808080" stop-opacity="0.25"/>
<stop offset="0.54" stop-color="#808080" stop-opacity="0.12"/>
<stop offset="1" stop-color="#808080" stop-opacity="0.1"/>
</linearGradient>
</defs>
</svg>
