<svg width="56" height="56" viewBox="0 0 56 56" fill="none" xmlns="http://www.w3.org/2000/svg">
<g opacity="0.5">
<path opacity="0.5" d="M27.9591 55.7766C43.3206 55.7766 55.7736 43.2906 55.7736 27.8883C55.7736 12.486 43.3206 0 27.9591 0C12.5975 0 0.144531 12.486 0.144531 27.8883C0.144531 43.2906 12.5975 55.7766 27.9591 55.7766Z" fill="url(#paint0_linear)"/>
</g>
<path d="M27.9596 55.035C42.9964 55.035 55.1861 42.8129 55.1861 27.7363C55.1861 12.6596 42.9964 0.4375 27.9596 0.4375C12.9228 0.4375 0.733032 12.6596 0.733032 27.7363C0.733032 42.8129 12.9228 55.035 27.9596 55.035Z" fill="#F5F5F5"/>
<path d="M28.0362 55.1164C33.3566 55.1252 38.5619 53.5635 43.0031 50.626C41.9999 45.1297 38.1813 44.8145 38.1813 44.8145H17.1278C17.1278 44.8145 13.5277 45.1104 12.3997 50.1688C16.9773 53.3972 22.4395 55.1256 28.0362 55.1164Z" fill="#1C84FF"/>
<path opacity="0.1" d="M23.507 38.1113H31.9288V44.8662C31.9288 45.9857 31.4853 47.0593 30.6958 47.8509C29.9064 48.6424 28.8356 49.0871 27.7191 49.0871C27.1661 49.0875 26.6184 48.9785 26.1074 48.7665C25.5963 48.5546 25.132 48.2437 24.7408 47.8517C24.3496 47.4597 24.0393 46.9943 23.8276 46.4821C23.6159 45.9698 23.507 45.4207 23.507 44.8662V38.1113Z" fill="black"/>
<path d="M24.311 37.7988H31.1248C31.3381 37.7988 31.5426 37.8838 31.6934 38.0349C31.8441 38.1861 31.9288 38.3912 31.9288 38.605V44.5537C31.9288 45.6732 31.4853 46.7468 30.6958 47.5384C29.9064 48.3299 28.8356 48.7746 27.7191 48.7746C27.1661 48.775 26.6184 48.666 26.1074 48.454C25.5963 48.2421 25.132 47.9312 24.7408 47.5392C24.3496 47.1472 24.0393 46.6818 23.8276 46.1696C23.6159 45.6573 23.507 45.1082 23.507 44.5537V38.605C23.507 38.3912 23.5917 38.1861 23.7425 38.0349C23.8932 37.8838 24.0977 37.7988 24.311 37.7988Z" fill="#FDB797"/>
<path opacity="0.1" d="M23.5236 41.3002C26.2377 42.3173 29.2255 42.3259 31.9454 41.3243V40.2871H23.5236V41.3002Z" fill="black"/>
<path d="M27.7481 41.8662C34.4142 41.8662 39.8181 36.4479 39.8181 29.7641C39.8181 23.0804 34.4142 17.6621 27.7481 17.6621C21.082 17.6621 15.6781 23.0804 15.6781 29.7641C15.6781 36.4479 21.082 41.8662 27.7481 41.8662Z" fill="#FDB797"/>
<path d="M15.9277 31.3557C16.548 31.3557 17.0509 30.4108 17.0509 29.2452C17.0509 28.0796 16.548 27.1348 15.9277 27.1348C15.3073 27.1348 14.8044 28.0796 14.8044 29.2452C14.8044 30.4108 15.3073 31.3557 15.9277 31.3557Z" fill="#FDB797"/>
<path d="M39.5061 31.3557C40.1264 31.3557 40.6293 30.4108 40.6293 29.2452C40.6293 28.0796 40.1264 27.1348 39.5061 27.1348C38.8857 27.1348 38.3828 28.0796 38.3828 29.2452C38.3828 30.4108 38.8857 31.3557 39.5061 31.3557Z" fill="#FDB797"/>
<path d="M24.5128 29.8223H21.4383C20.8617 29.8223 20.3943 30.2909 20.3943 30.8691V31.3648C20.3943 31.9429 20.8617 32.4116 21.4383 32.4116H24.5128C25.0894 32.4116 25.5568 31.9429 25.5568 31.3648V30.8691C25.5568 30.2909 25.0894 29.8223 24.5128 29.8223Z" stroke="#333333" stroke-width="2" stroke-miterlimit="10"/>
<path d="M30.9855 32.4082H34.06C34.6366 32.4082 35.104 31.9395 35.104 31.3614V30.8657C35.104 30.2875 34.6366 29.8188 34.06 29.8188H30.9855C30.4089 29.8188 29.9414 30.2875 29.9414 30.8657V31.3614C29.9414 31.9395 30.4089 32.4082 30.9855 32.4082Z" stroke="#333333" stroke-width="2" stroke-miterlimit="10"/>
<path d="M25.3601 30.0695C25.3601 30.0695 26.997 29.1792 30.0403 30.0695" stroke="#333333" stroke-width="2" stroke-miterlimit="10"/>
<path d="M36.093 20.9922L39.0547 27.8915C39.0547 27.8915 42.6764 23.3144 36.093 20.9922Z" fill="#858585"/>
<path d="M35.104 31.1148L39.525 27.1562" stroke="#333333" stroke-width="2" stroke-linecap="round" stroke-linejoin="round"/>
<path d="M19.4074 20.9922L16.4457 27.8915C16.4457 27.8915 12.824 23.3144 19.4074 20.9922Z" fill="#858585"/>
<path d="M20.3942 31.1148L15.9132 27.1562" stroke="#333333" stroke-width="2" stroke-linecap="round" stroke-linejoin="round"/>
<defs>
<linearGradient id="paint0_linear" x1="37024.1" y1="27635.7" x2="37024.1" y2="14708.3" gradientUnits="userSpaceOnUse">
<stop stop-color="#808080" stop-opacity="0.25"/>
<stop offset="0.54" stop-color="#808080" stop-opacity="0.12"/>
<stop offset="1" stop-color="#808080" stop-opacity="0.1"/>
</linearGradient>
</defs>
</svg>
