<svg width="57" height="56" viewBox="0 0 57 56" fill="none" xmlns="http://www.w3.org/2000/svg">
<g opacity="0.5">
<path opacity="0.5" d="M28.3302 55.7767C43.6917 55.7767 56.1447 43.2906 56.1447 27.8883C56.1447 12.486 43.6917 0 28.3302 0C12.9686 0 0.515625 12.486 0.515625 27.8883C0.515625 43.2906 12.9686 55.7767 28.3302 55.7767Z" fill="url(#paint0_linear)"/>
</g>
<path d="M28.3307 55.035C43.3674 55.035 55.5572 42.8129 55.5572 27.7362C55.5572 12.6596 43.3674 0.4375 28.3307 0.4375C13.2939 0.4375 1.10413 12.6596 1.10413 27.7362C1.10413 42.8129 13.2939 55.035 28.3307 55.035Z" fill="#F5F5F5"/>
<path d="M17.7101 27.9805C17.7101 27.9805 14.6236 43.2277 12.9387 42.3831C12.9387 42.3831 29.1873 56.456 43.5349 42.3831C43.5349 42.3831 41.0077 31.6383 37.3595 27.9805H17.7101Z" fill="#333333"/>
<path d="M28.4068 55.1165C33.7273 55.1252 38.9326 53.5635 43.3737 50.626C42.3705 45.1297 38.552 44.8145 38.552 44.8145H17.4984C17.4984 44.8145 13.8983 45.1104 12.7703 50.1688C17.3479 53.3973 22.8102 55.1256 28.4068 55.1165Z" fill="#1C84FF"/>
<path d="M28.1192 39.2373C34.7853 39.2373 40.1892 33.819 40.1892 27.1352C40.1892 20.4515 34.7853 15.0332 28.1192 15.0332C21.4531 15.0332 16.0492 20.4515 16.0492 27.1352C16.0492 33.819 21.4531 39.2373 28.1192 39.2373Z" fill="#333333"/>
<path opacity="0.1" d="M23.8781 38.1113H32.2999V44.8662C32.2999 45.9844 31.8574 47.0569 31.0695 47.8483C30.2816 48.6397 29.2126 49.0852 28.0974 49.0871C26.9809 49.0871 25.9101 48.6424 25.1207 47.8509C24.3312 47.0593 23.8876 45.9857 23.8876 44.8662V38.1113H23.8781Z" fill="black"/>
<path d="M24.6819 37.7988H31.4957C31.709 37.7988 31.9135 37.8838 32.0643 38.0349C32.215 38.1861 32.2997 38.3912 32.2997 38.605V44.5537C32.2997 45.6719 31.8572 46.7444 31.0693 47.5358C30.2814 48.3272 29.2124 48.7727 28.0972 48.7746C26.9807 48.7746 25.9099 48.3299 25.1205 47.5384C24.331 46.7468 23.8875 45.6732 23.8875 44.5537V38.6026C23.8881 38.3908 23.9717 38.1879 24.1204 38.0375C24.269 37.8871 24.4707 37.8014 24.6819 37.7988Z" fill="#BE7C5E"/>
<path opacity="0.1" d="M23.8947 41.3002C26.6088 42.3173 29.5966 42.3259 32.3165 41.3243V40.2871H23.8947V41.3002Z" fill="black"/>
<path d="M28.1192 41.8623C34.7853 41.8623 40.1892 36.444 40.1892 29.7602C40.1892 23.0765 34.7853 17.6582 28.1192 17.6582C21.4531 17.6582 16.0492 23.0765 16.0492 29.7602C16.0492 36.444 21.4531 41.8623 28.1192 41.8623Z" fill="#BE7C5E"/>
<path d="M16.582 25.1647H39.5988C39.5988 25.1647 37.6331 15.8469 28.9328 16.4413C20.2326 17.0357 16.582 25.1647 16.582 25.1647Z" fill="#333333"/>
<path d="M16.2988 31.3557C16.9191 31.3557 17.422 30.4108 17.422 29.2452C17.422 28.0797 16.9191 27.1348 16.2988 27.1348C15.6784 27.1348 15.1755 28.0797 15.1755 29.2452C15.1755 30.4108 15.6784 31.3557 16.2988 31.3557Z" fill="#BE7C5E"/>
<path d="M39.8772 31.3557C40.4975 31.3557 41.0004 30.4108 41.0004 29.2452C41.0004 28.0797 40.4975 27.1348 39.8772 27.1348C39.2568 27.1348 38.7539 28.0797 38.7539 29.2452C38.7539 30.4108 39.2568 31.3557 39.8772 31.3557Z" fill="#BE7C5E"/>
<path opacity="0.1" d="M16.582 25.4792H39.5988C39.5988 25.4792 37.6331 16.1614 28.9328 16.7558C20.2326 17.3502 16.582 25.4792 16.582 25.4792Z" fill="black"/>
<defs>
<linearGradient id="paint0_linear" x1="21416" y1="12956.4" x2="21416" y2="28.4461" gradientUnits="userSpaceOnUse">
<stop stop-color="#808080" stop-opacity="0.25"/>
<stop offset="0.54" stop-color="#808080" stop-opacity="0.12"/>
<stop offset="1" stop-color="#808080" stop-opacity="0.1"/>
</linearGradient>
</defs>
</svg>
