<svg width="57" height="56" viewBox="0 0 57 56" fill="none" xmlns="http://www.w3.org/2000/svg">
<g opacity="0.5">
<path opacity="0.5" d="M28.4434 55.7766C43.805 55.7766 56.258 43.2906 56.258 27.8883C56.258 12.486 43.805 0 28.4434 0C13.0819 0 0.628906 12.486 0.628906 27.8883C0.628906 43.2906 13.0819 55.7766 28.4434 55.7766Z" fill="url(#paint0_linear)"/>
</g>
<path d="M28.4436 55.035C43.4803 55.035 55.6701 42.8129 55.6701 27.7362C55.6701 12.6596 43.4803 0.4375 28.4436 0.4375C13.4068 0.4375 1.21704 12.6596 1.21704 27.7362C1.21704 42.8129 13.4068 55.035 28.4436 55.035Z" fill="#F5F5F5"/>
<path d="M43.5039 30.1919C43.5039 40.246 36.9613 51.4384 28.8899 51.4384C20.8184 51.4384 14.283 40.246 14.283 30.1919C14.283 20.1377 20.8256 15.0312 28.8971 15.0312C36.9685 15.0312 43.5039 20.1401 43.5039 30.1919Z" fill="#FDD835"/>
<path d="M28.5204 55.1203C33.8408 55.1291 39.0461 53.5674 43.4873 50.6299C42.484 45.1336 38.6655 44.8184 38.6655 44.8184H17.6144C17.6144 44.8184 14.0143 45.1144 12.8862 50.1727C17.4632 53.4007 22.9245 55.129 28.5204 55.1203Z" fill="#1C84FF"/>
<path opacity="0.1" d="M23.9941 38.1113H32.416V44.8662C32.416 45.9857 31.9725 47.0593 31.183 47.8508C30.3935 48.6424 29.3228 49.0871 28.2063 49.0871C27.0898 49.0871 26.019 48.6424 25.2295 47.8508C24.4401 47.0593 23.9965 45.9857 23.9965 44.8662V38.1113H23.9941Z" fill="black"/>
<path d="M24.798 37.7988H31.6118C31.825 37.7988 32.0295 37.8838 32.1803 38.0349C32.3311 38.1861 32.4158 38.3912 32.4158 38.605V44.5537C32.4158 45.6732 31.9723 46.7468 31.1828 47.5384C30.3933 48.3299 29.3226 48.7746 28.2061 48.7746C27.0896 48.7746 26.0188 48.3299 25.2293 47.5384C24.4399 46.7468 23.9963 45.6732 23.9963 44.5537V38.605C23.9963 38.3916 24.0807 38.1869 24.231 38.0358C24.3812 37.8847 24.5851 37.7995 24.798 37.7988Z" fill="#FDB797"/>
<path opacity="0.1" d="M24.0107 41.3002C26.7249 42.3174 29.7127 42.3259 32.4326 41.3243V40.2871H24.0107V41.3002Z" fill="black"/>
<path d="M28.2346 41.8662C34.9006 41.8662 40.3046 36.4479 40.3046 29.7641C40.3046 23.0804 34.9006 17.6621 28.2346 17.6621C21.5685 17.6621 16.1646 23.0804 16.1646 29.7641C16.1646 36.4479 21.5685 41.8662 28.2346 41.8662Z" fill="#FDB797"/>
<path d="M16.4143 31.3557C17.0346 31.3557 17.5375 30.4108 17.5375 29.2452C17.5375 28.0797 17.0346 27.1348 16.4143 27.1348C15.7939 27.1348 15.291 28.0797 15.291 29.2452C15.291 30.4108 15.7939 31.3557 16.4143 31.3557Z" fill="#FDB797"/>
<path d="M39.9927 31.3557C40.6131 31.3557 41.116 30.4108 41.116 29.2452C41.116 28.0797 40.6131 27.1348 39.9927 27.1348C39.3724 27.1348 38.8695 28.0797 38.8695 29.2452C38.8695 30.4108 39.3724 31.3557 39.9927 31.3557Z" fill="#FDB797"/>
<path opacity="0.1" d="M17.54 23.1983C17.54 23.1983 24.3635 32.5618 40.012 29.3636C40.012 29.3636 41.7593 27.2315 37.5063 20.686C33.2534 14.1404 21.4114 15.2065 17.54 23.1983Z" fill="black"/>
<path d="M17.54 23.0479C17.54 23.0479 24.3635 32.4114 40.012 29.2132C40.012 29.2132 41.7593 27.0811 37.5063 20.5356C33.2534 13.99 21.4114 15.0561 17.54 23.0479Z" fill="#FDD835"/>
<defs>
<linearGradient id="paint0_linear" x1="6493.65" y1="41450.4" x2="6493.65" y2="28523.1" gradientUnits="userSpaceOnUse">
<stop stop-color="#808080" stop-opacity="0.25"/>
<stop offset="0.54" stop-color="#808080" stop-opacity="0.12"/>
<stop offset="1" stop-color="#808080" stop-opacity="0.1"/>
</linearGradient>
</defs>
</svg>
