<svg width="56" height="56" viewBox="0 0 56 56" fill="none" xmlns="http://www.w3.org/2000/svg">
<g opacity="0.5">
<path opacity="0.5" d="M28.0723 55.7767C43.4339 55.7767 55.8869 43.2906 55.8869 27.8883C55.8869 12.486 43.4339 0 28.0723 0C12.7108 0 0.257812 12.486 0.257812 27.8883C0.257812 43.2906 12.7108 55.7767 28.0723 55.7767Z" fill="url(#paint0_linear)"/>
</g>
<path d="M28.1253 55.0076C43.1621 55.0076 55.3519 42.7856 55.3519 27.7089C55.3519 12.6322 43.1621 0.410156 28.1253 0.410156C13.0885 0.410156 0.898804 12.6322 0.898804 27.7089C0.898804 42.7856 13.0885 55.0076 28.1253 55.0076Z" fill="#F5F5F5"/>
<path d="M28.1494 55.1169C33.4698 55.1257 38.6751 53.564 43.1163 50.6265C42.1107 45.1277 38.2945 44.8125 38.2945 44.8125H17.2434C17.2434 44.8125 13.6433 45.1085 12.5153 50.1668C17.0919 53.3957 22.5533 55.1249 28.1494 55.1169Z" fill="#1C84FF"/>
<path d="M27.8635 40.3085C35.1221 40.3085 41.0064 34.4087 41.0064 27.1308C41.0064 19.853 35.1221 13.9531 27.8635 13.9531C20.605 13.9531 14.7207 19.853 14.7207 27.1308C14.7207 34.4087 20.605 40.3085 27.8635 40.3085Z" fill="#72351C"/>
<path opacity="0.1" d="M23.6202 38.1094H32.0421V44.8643C32.0431 45.4192 31.9349 45.9688 31.7238 46.4818C31.5126 46.9947 31.2027 47.4609 30.8117 47.8536C30.4207 48.2463 29.9563 48.5578 29.4451 48.7704C28.9338 48.983 28.3858 49.0924 27.8324 49.0924C26.7159 49.0924 25.6451 48.6477 24.8556 47.8561C24.0662 47.0646 23.6226 45.991 23.6226 44.8715V38.1094H23.6202Z" fill="black"/>
<path d="M24.4174 37.7969H31.2312C31.4444 37.7969 31.6489 37.8818 31.7997 38.033C31.9505 38.1842 32.0352 38.3892 32.0352 38.603V44.5518C32.0352 45.6712 31.5917 46.7448 30.8022 47.5364C30.0127 48.328 28.942 48.7727 27.8255 48.7727C26.709 48.7727 25.6382 48.328 24.8487 47.5364C24.0593 46.7448 23.6157 45.6712 23.6157 44.5518V38.603C23.6157 38.3892 23.7004 38.1842 23.8512 38.033C24.002 37.8818 24.2065 37.7969 24.4198 37.7969H24.4174Z" fill="#FDA57D"/>
<path opacity="0.1" d="M23.6301 41.2983C26.3443 42.3154 29.3321 42.3239 32.052 41.3223V40.2852H23.6301V41.2983Z" fill="black"/>
<path d="M27.8641 41.8623C34.5301 41.8623 39.9341 36.444 39.9341 29.7602C39.9341 23.0765 34.5301 17.6582 27.8641 17.6582C21.198 17.6582 15.7941 23.0765 15.7941 29.7602C15.7941 36.444 21.198 41.8623 27.8641 41.8623Z" fill="#FDA57D"/>
<path opacity="0.1" d="M19.2667 18.753C19.2667 18.753 24.3525 29.1007 38.7074 23.0846L35.3665 17.8313L29.4455 15.6992L19.2667 18.753Z" fill="black"/>
<path d="M19.2667 18.6026C19.2667 18.6026 24.3525 28.9503 38.7074 22.9342L35.3665 17.6809L29.4455 15.5488L19.2667 18.6026Z" fill="#72351C"/>
<path d="M19.2209 17.9016C19.5638 16.8372 20.1564 15.8708 20.949 15.0837C23.3227 12.7302 27.2156 12.2344 29.2125 9.54883C29.321 9.7389 29.3885 9.94966 29.4107 10.1675C29.433 10.3854 29.4094 10.6055 29.3416 10.8137C29.2737 11.0218 29.1631 11.2134 29.0168 11.3761C28.8706 11.5387 28.6919 11.6688 28.4924 11.7579C30.4125 11.7459 32.623 11.5775 33.703 9.99883C33.9703 10.6227 34.0556 11.3097 33.949 11.9802C33.8423 12.6507 33.5482 13.2771 33.1006 13.7866C34.7951 13.8636 36.6047 15.0163 36.7151 16.7152C36.7871 17.8463 36.0815 18.9171 35.1527 19.5669C34.2238 20.2166 33.1054 20.5078 32.0014 20.7484C28.7804 21.4704 17.1184 24.4568 19.2209 17.9016Z" fill="#72351C"/>
<path d="M39.9336 29.8672H39.6144L33.3886 35.4285C27.3884 32.6129 22.9866 35.4285 22.9866 35.4285L16.4584 30.1006L15.8008 30.1824C15.8898 33.3588 17.2213 36.3727 19.5077 38.5732C21.794 40.7737 24.8519 41.9842 28.0208 41.9435C31.1898 41.9027 34.2157 40.6139 36.445 38.3553C38.6743 36.0967 39.9283 33.0496 39.936 29.872L39.9336 29.8672ZM27.8468 37.5558C25.4995 37.5558 23.5962 37.0745 23.5962 36.4897C23.5962 35.905 25.4995 35.4237 27.8468 35.4237C30.1941 35.4237 32.0973 35.905 32.0973 36.4897C32.0973 37.0745 30.1941 37.5558 27.8444 37.5558H27.8468Z" fill="#72351C"/>
<path d="M15.7891 31.8596C16.4095 31.8596 16.9123 30.9147 16.9123 29.7491C16.9123 28.5836 16.4095 27.6387 15.7891 27.6387C15.1688 27.6387 14.6659 28.5836 14.6659 29.7491C14.6659 30.9147 15.1688 31.8596 15.7891 31.8596Z" fill="#FDA57D"/>
<path d="M39.9313 31.8596C40.5517 31.8596 41.0546 30.9147 41.0546 29.7491C41.0546 28.5836 40.5517 27.6387 39.9313 27.6387C39.311 27.6387 38.8081 28.5836 38.8081 29.7491C38.8081 30.9147 39.311 31.8596 39.9313 31.8596Z" fill="#FDA57D"/>
<defs>
<linearGradient id="paint0_linear" x1="36783.9" y1="12927.4" x2="36783.9" y2="0" gradientUnits="userSpaceOnUse">
<stop stop-color="#808080" stop-opacity="0.25"/>
<stop offset="0.54" stop-color="#808080" stop-opacity="0.12"/>
<stop offset="1" stop-color="#808080" stop-opacity="0.1"/>
</linearGradient>
</defs>
</svg>
