<svg width="56" height="56" viewBox="0 0 56 56" fill="none" xmlns="http://www.w3.org/2000/svg">
<g opacity="0.5">
<path opacity="0.5" d="M27.8145 55.7767C43.1761 55.7767 55.6291 43.2906 55.6291 27.8883C55.6291 12.486 43.1761 0 27.8145 0C12.453 0 0 12.486 0 27.8883C0 43.2906 12.453 55.7767 27.8145 55.7767Z" fill="url(#paint0_linear)"/>
</g>
<path d="M27.8676 55.0096C42.9044 55.0096 55.0941 42.7875 55.0941 27.7108C55.0941 12.6342 42.9044 0.412109 27.8676 0.412109C12.8308 0.412109 0.641113 12.6342 0.641113 27.7108C0.641113 42.7875 12.8308 55.0096 27.8676 55.0096Z" fill="#F5F5F5"/>
<path d="M27.8912 55.1165C33.2083 55.1234 38.41 53.5617 42.8485 50.626C41.8452 45.1297 38.0267 44.8145 38.0267 44.8145H16.9828C16.9828 44.8145 13.3827 45.1104 12.2546 50.1688C16.8323 53.3973 22.2945 55.1256 27.8912 55.1165Z" fill="#1C84FF"/>
<path d="M27.6035 40.3124C34.8621 40.3124 40.7464 34.4126 40.7464 27.1347C40.7464 19.8569 34.8621 13.957 27.6035 13.957C20.3449 13.957 14.4607 19.8569 14.4607 27.1347C14.4607 34.4126 20.3449 40.3124 27.6035 40.3124Z" fill="#474747"/>
<path opacity="0.1" d="M23.3625 38.1113H31.7844V44.8662C31.7844 45.9857 31.3409 47.0593 30.5514 47.8509C29.762 48.6425 28.6912 49.0872 27.5747 49.0872C26.4582 49.0872 25.3874 48.6425 24.598 47.8509C23.8085 47.0593 23.365 45.9857 23.365 44.8662V38.1113H23.3625Z" fill="black"/>
<path d="M24.1664 37.7988H30.9802C31.0858 37.7988 31.1903 37.8197 31.2879 37.8602C31.3854 37.9007 31.474 37.9601 31.5487 38.0349C31.6234 38.1098 31.6826 38.1987 31.723 38.2965C31.7634 38.3943 31.7842 38.4991 31.7842 38.605V44.5537C31.7842 45.108 31.6753 45.6569 31.4638 46.169C31.2522 46.6811 30.9421 47.1464 30.5512 47.5384C30.1603 47.9303 29.6962 48.2412 29.1855 48.4533C28.6747 48.6655 28.1273 48.7746 27.5745 48.7746C27.0216 48.7746 26.4742 48.6655 25.9635 48.4533C25.4527 48.2412 24.9887 47.9303 24.5977 47.5384C24.2068 47.1464 23.8967 46.6811 23.6852 46.169C23.4736 45.6569 23.3647 45.108 23.3647 44.5537V38.605C23.3647 38.3912 23.4495 38.1861 23.6002 38.0349C23.751 37.8838 23.9555 37.7988 24.1688 37.7988H24.1664Z" fill="#FFCCB5"/>
<path opacity="0.1" d="M23.3792 41.3002C26.0933 42.3173 29.0811 42.3259 31.801 41.3243V40.2871H23.3792V41.3002Z" fill="black"/>
<path d="M27.6035 41.8662C34.2695 41.8662 39.6734 36.4479 39.6734 29.7641C39.6734 23.0804 34.2695 17.6621 27.6035 17.6621C20.9374 17.6621 15.5334 23.0804 15.5334 29.7641C15.5334 36.4479 20.9374 41.8662 27.6035 41.8662Z" fill="#FFCCB5"/>
<path d="M27.5868 18.6026C30.2696 18.6026 32.4445 16.422 32.4445 13.732C32.4445 11.042 30.2696 8.86133 27.5868 8.86133C24.9039 8.86133 22.729 11.042 22.729 13.732C22.729 16.422 24.9039 18.6026 27.5868 18.6026Z" fill="#474747"/>
<path d="M27.5864 12.1327C29.3481 12.1327 30.7761 10.7008 30.7761 8.9345C30.7761 7.1682 29.3481 5.73633 27.5864 5.73633C25.8248 5.73633 24.3967 7.1682 24.3967 8.9345C24.3967 10.7008 25.8248 12.1327 27.5864 12.1327Z" fill="#474747"/>
<path d="M25.4794 16.4017C24.3397 15.8891 23.4407 14.9561 22.9692 13.7963C22.4977 12.6365 22.4898 11.3392 22.9473 10.1738C22.9137 10.2412 22.8801 10.311 22.8489 10.3808C22.5878 10.9645 22.4439 11.594 22.4254 12.2335C22.4069 12.8729 22.5142 13.5098 22.7412 14.1076C22.9682 14.7055 23.3104 15.2527 23.7483 15.7179C24.1862 16.1832 24.7112 16.5574 25.2934 16.8192C25.8755 17.0811 26.5034 17.2254 27.1412 17.2439C27.7789 17.2624 28.4141 17.1548 29.0104 16.9272C29.6067 16.6996 30.1524 16.3565 30.6164 15.9174C31.0805 15.4784 31.4537 14.952 31.7148 14.3683C31.746 14.2985 31.7748 14.2287 31.8036 14.1565C31.2397 15.2744 30.2679 16.1314 29.0902 16.5496C27.9124 16.9677 26.6192 16.9147 25.4794 16.4017Z" fill="#474747"/>
<path opacity="0.1" d="M19.0085 18.7569C19.0085 18.7569 24.0943 29.1047 38.4492 23.0885L35.1083 17.8352L29.1873 15.7031L19.0085 18.7569Z" fill="black"/>
<path d="M19.0085 18.6026C19.0085 18.6026 24.0943 28.9503 38.4492 22.9342L35.1083 17.6809L29.1873 15.5488L19.0085 18.6026Z" fill="#474747"/>
<path d="M22.928 14.8335C26.0576 14.5867 29.2018 14.5867 32.3315 14.8335C32.3315 14.8335 25.3857 15.4809 22.928 14.8335Z" fill="#333333"/>
<path d="M28.3162 5.54122C28.0749 5.53234 27.8333 5.55091 27.5962 5.59657H27.781C28.5665 5.62176 29.3151 5.93709 29.8829 6.48197C30.4507 7.02685 30.7977 7.76287 30.8573 8.54864C30.9168 9.33442 30.6847 10.1145 30.2055 10.7392C29.7263 11.3638 29.0338 11.7889 28.261 11.9327C29.1063 11.9404 29.9201 11.611 30.5232 11.0171C31.1264 10.4232 31.4695 9.61343 31.4771 8.76586C31.4848 7.91829 31.1563 7.10239 30.564 6.49766C29.9716 5.89292 29.164 5.54888 28.3186 5.54122H28.3162Z" fill="#474747"/>
<path d="M15.5309 31.8615C16.1513 31.8615 16.6542 30.9166 16.6542 29.7511C16.6542 28.5855 16.1513 27.6406 15.5309 27.6406C14.9106 27.6406 14.4077 28.5855 14.4077 29.7511C14.4077 30.9166 14.9106 31.8615 15.5309 31.8615Z" fill="#FFCCB5"/>
<path d="M39.673 31.8615C40.2934 31.8615 40.7963 30.9166 40.7963 29.7511C40.7963 28.5855 40.2934 27.6406 39.673 27.6406C39.0527 27.6406 38.5498 28.5855 38.5498 29.7511C38.5498 30.9166 39.0527 31.8615 39.673 31.8615Z" fill="#FFCCB5"/>
<path d="M18.248 18.9091L20.6025 17.6914L21.1329 19.643L19.6905 20.6273L18.248 18.9091Z" fill="#474747"/>
<defs>
<linearGradient id="paint0_linear" x1="21421.6" y1="27342.3" x2="21421.6" y2="14414.9" gradientUnits="userSpaceOnUse">
<stop stop-color="#808080" stop-opacity="0.25"/>
<stop offset="0.54" stop-color="#808080" stop-opacity="0.12"/>
<stop offset="1" stop-color="#808080" stop-opacity="0.1"/>
</linearGradient>
</defs>
</svg>
