<svg width="56" height="56" viewBox="0 0 56 56" fill="none" xmlns="http://www.w3.org/2000/svg">
<g opacity="0.5">
<path opacity="0.5" d="M27.8458 55.7766C43.2073 55.7766 55.6603 43.2906 55.6603 27.8883C55.6603 12.486 43.2073 0 27.8458 0C12.4842 0 0.03125 12.486 0.03125 27.8883C0.03125 43.2906 12.4842 55.7766 27.8458 55.7766Z" fill="url(#paint0_linear)"/>
</g>
<path d="M27.9011 55.0076C42.9379 55.0076 55.1276 42.7856 55.1276 27.7089C55.1276 12.6322 42.9379 0.410156 27.9011 0.410156C12.8643 0.410156 0.674561 12.6322 0.674561 27.7089C0.674561 42.7856 12.8643 55.0076 27.9011 55.0076Z" fill="#F5F5F5"/>
<path d="M42.8799 30.4003C42.8799 39.4822 36.3733 43.951 27.9226 43.951C19.4719 43.951 12.2837 39.4822 12.2837 30.4003C12.2837 21.3184 19.1335 13.957 27.5818 13.957C36.0301 13.957 42.8799 21.3111 42.8799 30.4003Z" fill="#333333"/>
<path d="M27.9228 55.1145C33.2441 55.1238 38.4503 53.562 42.8921 50.6241C41.8889 45.1278 38.0704 44.8125 38.0704 44.8125H17.0169C17.0169 44.8125 13.4167 45.1085 12.2887 50.1669C16.8657 53.3948 22.327 55.1232 27.9228 55.1145Z" fill="#1C84FF"/>
<path opacity="0.1" d="M23.396 38.1035H31.8179V44.8584C31.8188 45.4141 31.7103 45.9646 31.4986 46.4781C31.2869 46.9917 30.9761 47.4583 30.584 47.8511C30.192 48.244 29.7265 48.5553 29.2142 48.7673C28.7018 48.9793 28.1528 49.0878 27.5985 49.0865C26.482 49.0865 25.4113 48.6418 24.6218 47.8502C23.8323 47.0587 23.3888 45.9851 23.3888 44.8656V38.1035H23.396Z" fill="black"/>
<path d="M24.1976 37.7973H31.0115C31.2247 37.7973 31.4292 37.8823 31.58 38.0335C31.7308 38.1846 31.8155 38.3897 31.8155 38.6035V44.5522C31.8155 45.1071 31.7064 45.6566 31.4943 46.1692C31.2823 46.6817 30.9716 47.1474 30.5799 47.5394C30.1883 47.9314 29.7233 48.2422 29.2117 48.4539C28.7002 48.6656 28.152 48.7741 27.5985 48.7731C26.482 48.7731 25.4113 48.3284 24.6218 47.5368C23.8323 46.7453 23.3888 45.6717 23.3888 44.5522V38.6011C23.3888 38.3873 23.4735 38.1822 23.6243 38.031C23.7751 37.8799 23.9796 37.7949 24.1928 37.7949L24.1976 37.7973Z" fill="#FDA57D"/>
<path opacity="0.1" d="M23.413 41.2983C26.1271 42.3154 29.1149 42.3239 31.8348 41.3223V40.2852H23.413V41.2983Z" fill="black"/>
<path d="M27.6365 41.8623C34.3026 41.8623 39.7065 36.444 39.7065 29.7602C39.7065 23.0765 34.3026 17.6582 27.6365 17.6582C20.9705 17.6582 15.5665 23.0765 15.5665 29.7602C15.5665 36.444 20.9705 41.8623 27.6365 41.8623Z" fill="#FDA57D"/>
<path opacity="0.1" d="M13.7261 30.5527C13.7261 30.5527 21.2431 29.6383 26.9265 22.3323C26.9265 22.3323 34.4436 30.6297 39.6806 29.7153C39.6806 29.7153 42.7167 26.5171 39.6806 23.3213C36.6445 20.1256 34.29 16.09 30.2674 16.6218C26.2449 17.1536 21.3079 17.3822 19.1839 19.2857C17.0598 21.1892 13.7261 30.5527 13.7261 30.5527Z" fill="black"/>
<path d="M13.7261 30.4004C13.7261 30.4004 21.2431 29.4859 26.9265 22.1799C26.9265 22.1799 34.4436 30.4774 39.6806 29.5629C39.6806 29.5629 42.7167 26.3648 39.6806 23.169C36.6445 19.9732 34.29 15.9376 30.2674 16.4694C26.2449 17.0013 21.3175 17.2203 19.1935 19.1454C17.0694 21.0706 13.7261 30.4004 13.7261 30.4004Z" fill="#333333"/>
<path d="M15.5621 31.8615C16.1824 31.8615 16.6853 30.9166 16.6853 29.7511C16.6853 28.5855 16.1824 27.6406 15.5621 27.6406C14.9417 27.6406 14.4388 28.5855 14.4388 29.7511C14.4388 30.9166 14.9417 31.8615 15.5621 31.8615Z" fill="#FDA57D"/>
<path d="M39.7048 31.8615C40.3251 31.8615 40.828 30.9166 40.828 29.7511C40.828 28.5855 40.3251 27.6406 39.7048 27.6406C39.0844 27.6406 38.5815 28.5855 38.5815 29.7511C38.5815 30.9166 39.0844 31.8615 39.7048 31.8615Z" fill="#FDA57D"/>
<defs>
<linearGradient id="paint0_linear" x1="21808.3" y1="42191.7" x2="21808.3" y2="29264.3" gradientUnits="userSpaceOnUse">
<stop stop-color="#808080" stop-opacity="0.25"/>
<stop offset="0.54" stop-color="#808080" stop-opacity="0.12"/>
<stop offset="1" stop-color="#808080" stop-opacity="0.1"/>
</linearGradient>
</defs>
</svg>
