<svg width="57" height="56" viewBox="0 0 57 56" fill="none" xmlns="http://www.w3.org/2000/svg">
<g opacity="0.5">
<path opacity="0.5" d="M28.2169 55.7767C43.5784 55.7767 56.0314 43.2906 56.0314 27.8883C56.0314 12.486 43.5784 0 28.2169 0C12.8553 0 0.402344 12.486 0.402344 27.8883C0.402344 43.2906 12.8553 55.7767 28.2169 55.7767Z" fill="url(#paint0_linear)"/>
</g>
<path d="M28.2698 55.0096C43.3066 55.0096 55.4964 42.7875 55.4964 27.7108C55.4964 12.6342 43.3066 0.412109 28.2698 0.412109C13.2331 0.412109 1.04333 12.6342 1.04333 27.7108C1.04333 42.7875 13.2331 55.0096 28.2698 55.0096Z" fill="#F5F5F5"/>
<path d="M28.2935 55.1165C33.6107 55.1234 38.8124 53.5617 43.2508 50.626C42.2476 45.1297 38.429 44.8145 38.429 44.8145H17.3851C17.3851 44.8145 13.785 45.1104 12.657 50.1688C17.2346 53.3973 22.6968 55.1256 28.2935 55.1165Z" fill="#1C84FF"/>
<path d="M28.0058 40.3124C35.2644 40.3124 41.1486 34.4126 41.1486 27.1347C41.1486 19.8569 35.2644 13.957 28.0058 13.957C20.7472 13.957 14.8629 19.8569 14.8629 27.1347C14.8629 34.4126 20.7472 40.3124 28.0058 40.3124Z" fill="#F55F44"/>
<path opacity="0.1" d="M23.7648 38.1113H32.1867V44.8662C32.1867 45.9857 31.7431 47.0593 30.9537 47.8509C30.1642 48.6425 29.0934 49.0872 27.9769 49.0872C26.8604 49.0872 25.7897 48.6425 25.0002 47.8509C24.2107 47.0593 23.7672 45.9857 23.7672 44.8662V38.1113H23.7648Z" fill="black"/>
<path d="M24.5686 37.7988H31.3824C31.488 37.7988 31.5925 37.8197 31.6901 37.8602C31.7876 37.9007 31.8763 37.9601 31.9509 38.0349C32.0256 38.1098 32.0848 38.1987 32.1252 38.2965C32.1656 38.3943 32.1864 38.4991 32.1864 38.605V44.5537C32.1864 45.108 32.0775 45.6569 31.866 46.169C31.6544 46.6811 31.3443 47.1464 30.9534 47.5384C30.5625 47.9303 30.0984 48.2412 29.5877 48.4533C29.0769 48.6655 28.5295 48.7746 27.9767 48.7746C27.4239 48.7746 26.8764 48.6655 26.3657 48.4533C25.855 48.2412 25.3909 47.9303 25 47.5384C24.6091 47.1464 24.299 46.6811 24.0874 46.169C23.8759 45.6569 23.767 45.108 23.767 44.5537V38.605C23.767 38.3912 23.8517 38.1861 24.0025 38.0349C24.1532 37.8838 24.3578 37.7988 24.571 37.7988H24.5686Z" fill="#FDA57D"/>
<path opacity="0.1" d="M23.7814 41.3002C26.4956 42.3173 29.4833 42.3259 32.2033 41.3243V40.2871H23.7814V41.3002Z" fill="black"/>
<path d="M28.0059 41.8662C34.672 41.8662 40.0759 36.4479 40.0759 29.7641C40.0759 23.0804 34.672 17.6621 28.0059 17.6621C21.3398 17.6621 15.9359 23.0804 15.9359 29.7641C15.9359 36.4479 21.3398 41.8662 28.0059 41.8662Z" fill="#FDA57D"/>
<path d="M27.9891 18.6026C30.672 18.6026 32.8469 16.422 32.8469 13.732C32.8469 11.042 30.672 8.86133 27.9891 8.86133C25.3062 8.86133 23.1313 11.042 23.1313 13.732C23.1313 16.422 25.3062 18.6026 27.9891 18.6026Z" fill="#F55F44"/>
<path d="M27.9888 12.1327C29.7504 12.1327 31.1785 10.7008 31.1785 8.9345C31.1785 7.1682 29.7504 5.73633 27.9888 5.73633C26.2272 5.73633 24.7991 7.1682 24.7991 8.9345C24.7991 10.7008 26.2272 12.1327 27.9888 12.1327Z" fill="#F55F44"/>
<path d="M25.8817 16.4017C24.742 15.8891 23.8431 14.9561 23.3715 13.7963C22.9 12.6365 22.8922 11.3392 23.3496 10.1738C23.316 10.2412 23.2824 10.311 23.2512 10.3808C22.9901 10.9645 22.8462 11.594 22.8277 12.2335C22.8092 12.8729 22.9166 13.5098 23.1436 14.1076C23.3706 14.7055 23.7128 15.2527 24.1507 15.7179C24.5886 16.1832 25.1136 16.5574 25.6957 16.8192C26.2779 17.0811 26.9058 17.2254 27.5435 17.2439C28.1813 17.2624 28.8164 17.1548 29.4127 16.9272C30.009 16.6996 30.5547 16.3565 31.0188 15.9174C31.4828 15.4784 31.856 14.952 32.1172 14.3683C32.1484 14.2985 32.1772 14.2287 32.206 14.1565C31.6421 15.2744 30.6703 16.1314 29.4925 16.5496C28.3147 16.9677 27.0216 16.9147 25.8817 16.4017Z" fill="#F55F44"/>
<path opacity="0.1" d="M19.4109 18.7569C19.4109 18.7569 24.4967 29.1047 38.8516 23.0885L35.5107 17.8352L29.5897 15.7031L19.4109 18.7569Z" fill="black"/>
<path d="M19.4109 18.6026C19.4109 18.6026 24.4967 28.9503 38.8516 22.9342L35.5107 17.6809L29.5897 15.5488L19.4109 18.6026Z" fill="#F55F44"/>
<path d="M23.3302 14.8335C26.4599 14.5867 29.604 14.5867 32.7337 14.8335C32.7337 14.8335 25.7879 15.4809 23.3302 14.8335Z" fill="#333333"/>
<path d="M28.7184 5.54122C28.4771 5.53234 28.2356 5.55091 27.9984 5.59657H28.1832C28.9688 5.62176 29.7173 5.93709 30.2852 6.48197C30.853 7.02685 31.1999 7.76287 31.2595 8.54864C31.319 9.33442 31.0869 10.1145 30.6077 10.7392C30.1285 11.3638 29.436 11.7889 28.6632 11.9327C29.5086 11.9404 30.3223 11.611 30.9254 11.0171C31.5286 10.4232 31.8717 9.61343 31.8794 8.76586C31.887 7.91829 31.5585 7.10239 30.9662 6.49766C30.3738 5.89292 29.5662 5.54888 28.7208 5.54122H28.7184Z" fill="#F55F44"/>
<path d="M15.9332 31.8615C16.5535 31.8615 17.0564 30.9166 17.0564 29.7511C17.0564 28.5855 16.5535 27.6406 15.9332 27.6406C15.3128 27.6406 14.8099 28.5855 14.8099 29.7511C14.8099 30.9166 15.3128 31.8615 15.9332 31.8615Z" fill="#FDA57D"/>
<path d="M40.0754 31.8615C40.6957 31.8615 41.1986 30.9166 41.1986 29.7511C41.1986 28.5855 40.6957 27.6406 40.0754 27.6406C39.455 27.6406 38.9521 28.5855 38.9521 29.7511C38.9521 30.9166 39.455 31.8615 40.0754 31.8615Z" fill="#FDA57D"/>
<path d="M18.6504 18.9091L21.0049 17.6914L21.5353 19.643L20.0928 20.6273L18.6504 18.9091Z" fill="#F55F44"/>
<defs>
<linearGradient id="paint0_linear" x1="21422" y1="27342.3" x2="21422" y2="14414.9" gradientUnits="userSpaceOnUse">
<stop stop-color="#808080" stop-opacity="0.25"/>
<stop offset="0.54" stop-color="#808080" stop-opacity="0.12"/>
<stop offset="1" stop-color="#808080" stop-opacity="0.1"/>
</linearGradient>
</defs>
</svg>
