<svg width="57" height="56" viewBox="0 0 57 56" fill="none" xmlns="http://www.w3.org/2000/svg">
<g opacity="0.5">
<path opacity="0.5" d="M28.588 55.7767C43.9495 55.7767 56.4025 43.2906 56.4025 27.8883C56.4025 12.486 43.9495 0 28.588 0C13.2264 0 0.773438 12.486 0.773438 27.8883C0.773438 43.2906 13.2264 55.7767 28.588 55.7767Z" fill="url(#paint0_linear)"/>
</g>
<path d="M28.6409 55.0096C43.6777 55.0096 55.8675 42.7875 55.8675 27.7109C55.8675 12.6342 43.6777 0.412109 28.6409 0.412109C13.6042 0.412109 1.41443 12.6342 1.41443 27.7109C1.41443 42.7875 13.6042 55.0096 28.6409 55.0096Z" fill="#F5F5F5"/>
<path d="M28.6648 55.1164C33.9844 55.1247 39.1888 53.563 43.6293 50.626C42.6261 45.1297 38.8076 44.8145 38.8076 44.8145H17.7468C17.7468 44.8145 14.1467 45.1104 13.0187 50.1688C17.599 53.3991 23.0649 55.1276 28.6648 55.1164Z" fill="#1C84FF"/>
<path d="M28.3773 40.3125C35.6359 40.3125 41.5202 34.4126 41.5202 27.1348C41.5202 19.8569 35.6359 13.957 28.3773 13.957C21.1187 13.957 15.2345 19.8569 15.2345 27.1348C15.2345 34.4126 21.1187 40.3125 28.3773 40.3125Z" fill="#333333"/>
<path opacity="0.1" d="M24.1364 38.1113H32.5582V44.8662C32.5582 45.9857 32.1147 47.0593 31.3252 47.8509C30.5358 48.6424 29.465 49.0872 28.3485 49.0872C27.232 49.0872 26.1612 48.6424 25.3718 47.8509C24.5823 47.0593 24.1388 45.9857 24.1388 44.8662V38.1113H24.1364Z" fill="black"/>
<path d="M24.9404 37.7993H31.7542C31.9675 37.7993 32.172 37.8842 32.3227 38.0354C32.4735 38.1866 32.5582 38.3916 32.5582 38.6054V44.559C32.5582 45.6785 32.1147 46.7521 31.3252 47.5436C30.5358 48.3352 29.465 48.7799 28.3485 48.7799C27.7955 48.7802 27.2478 48.6713 26.7368 48.4593C26.2257 48.2473 25.7614 47.9365 25.3702 47.5445C24.979 47.1525 24.6687 46.6871 24.457 46.1748C24.2453 45.6626 24.1364 45.1135 24.1364 44.559V38.603C24.1364 38.3892 24.2211 38.1842 24.3718 38.033C24.5226 37.8818 24.7271 37.7969 24.9404 37.7969V37.7993Z" fill="#FDB797"/>
<path opacity="0.1" d="M24.153 41.2996C26.8671 42.3167 29.8549 42.3253 32.5748 41.3237V40.2793H24.153V41.2996Z" fill="black"/>
<path d="M28.377 41.8642C35.0431 41.8642 40.447 36.446 40.447 29.7622C40.447 23.0784 35.0431 17.6602 28.377 17.6602C21.7109 17.6602 16.307 23.0784 16.307 29.7622C16.307 36.446 21.7109 41.8642 28.377 41.8642Z" fill="#FDB797"/>
<path opacity="0.1" d="M19.782 18.753C19.782 18.753 24.8678 29.1007 39.2226 23.0846L35.8817 17.8313L29.9607 15.6992L19.782 18.753Z" fill="black"/>
<path d="M19.782 18.6007C19.782 18.6007 24.8678 28.9484 39.2226 22.9323L35.8817 17.679L29.9607 15.5469L19.782 18.6007Z" fill="#333333"/>
<path d="M19.7366 17.8977C20.0795 16.8333 20.6721 15.8669 21.4646 15.0798C23.8383 12.7262 27.7313 12.2305 29.7281 9.54492C29.8366 9.73499 29.9042 9.94575 29.9264 10.1636C29.9486 10.3815 29.9251 10.6016 29.8572 10.8097C29.7894 11.0179 29.6788 11.2095 29.5325 11.3721C29.3862 11.5348 29.2076 11.6649 29.0081 11.754C30.9282 11.742 33.1386 11.5736 34.2187 9.99493C34.486 10.6187 34.5713 11.3058 34.4646 11.9763C34.358 12.6468 34.0638 13.2732 33.6163 13.7827C35.3107 13.8597 37.1204 15.0124 37.2308 16.7113C37.3028 17.8424 36.5972 18.9132 35.6683 19.563C34.7395 20.2127 33.6187 20.5087 32.5146 20.7542C29.2937 21.4713 17.6341 24.4577 19.7366 17.8977Z" fill="#333333"/>
<path d="M16.3021 31.8615C16.9224 31.8615 17.4253 30.9166 17.4253 29.7511C17.4253 28.5855 16.9224 27.6406 16.3021 27.6406C15.6817 27.6406 15.1788 28.5855 15.1788 29.7511C15.1788 30.9166 15.6817 31.8615 16.3021 31.8615Z" fill="#FDB797"/>
<path d="M40.4443 31.8615C41.0646 31.8615 41.5675 30.9166 41.5675 29.7511C41.5675 28.5855 41.0646 27.6406 40.4443 27.6406C39.8239 27.6406 39.321 28.5855 39.321 29.7511C39.321 30.9166 39.8239 31.8615 40.4443 31.8615Z" fill="#FDB797"/>
<defs>
<linearGradient id="paint0_linear" x1="6447.63" y1="26918.9" x2="6447.63" y2="13991.6" gradientUnits="userSpaceOnUse">
<stop stop-color="#808080" stop-opacity="0.25"/>
<stop offset="0.54" stop-color="#808080" stop-opacity="0.12"/>
<stop offset="1" stop-color="#808080" stop-opacity="0.1"/>
</linearGradient>
</defs>
</svg>
