<svg width="127" height="110" viewBox="0 0 127 110" fill="none" xmlns="http://www.w3.org/2000/svg">
<g clip-path="url(#clip0)">
<g opacity="0.18">
<path d="M9.8647 86.6177C9.8647 86.6177 -2.14645 80.6533 0.331957 65.2568C2.81036 49.8604 27.1206 36.435 36.6643 26.366C46.208 16.297 56.0961 -1.01217 81.6637 0.0463861C107.231 1.10494 106.887 18.2699 118.88 24.5263C130.873 30.7827 119.585 52.5232 120.644 57.7283C121.703 62.9335 135.237 78.6621 118.945 89.525C102.654 100.388 9.8647 86.6177 9.8647 86.6177Z" fill="#1A9AFA"/>
<path d="M9.8647 86.6177C9.8647 86.6177 -2.14645 80.6533 0.331957 65.2568C2.81036 49.8604 27.1206 36.435 36.6643 26.366C46.208 16.297 56.0961 -1.01217 81.6637 0.0463861C107.231 1.10494 106.887 18.2699 118.88 24.5263C130.873 30.7827 119.585 52.5232 120.644 57.7283C121.703 62.9335 135.237 78.6621 118.945 89.525C102.654 100.388 9.8647 86.6177 9.8647 86.6177Z" fill="#6C63FF"/>
</g>
<path d="M0.333496 101.824V106.387C0.333496 106.387 0.913005 109.243 6.227 109.086C11.541 108.929 123.893 109.086 123.893 109.086C123.893 109.086 126.769 108.617 127.343 106.27V101.824H0.333496Z" fill="#1A9AFA"/>
<path d="M0.333496 101.824V106.387C0.333496 106.387 0.913005 109.243 6.227 109.086C11.541 108.929 123.893 109.086 123.893 109.086C123.893 109.086 126.769 108.617 127.343 106.27V101.824H0.333496Z" fill="#6C63FF"/>
<path d="M0.333496 101.824V106.387C0.333496 106.387 0.913005 109.243 6.227 109.086C11.541 108.929 123.893 109.086 123.893 109.086C123.893 109.086 126.769 108.617 127.343 106.27V101.824H0.333496Z" fill="url(#paint0_linear)"/>
<path d="M111.2 79.0498H14.8942C12.6126 79.0498 10.7629 77.1991 10.7629 75.093V16.0878C10.7629 13.624 12.6126 11.7715 14.8942 11.7715H111.2C112.295 11.7734 113.344 12.2102 114.117 12.9859C114.89 13.7616 115.324 14.8129 115.324 15.909V74.9141C115.324 76.01 114.89 77.0611 114.117 77.8365C113.343 78.6119 112.295 79.0483 111.2 79.0498Z" fill="#1A9AFA"/>
<path d="M111.2 79.0498H14.8942C12.6126 79.0498 10.7629 77.1991 10.7629 75.093V16.0878C10.7629 13.624 12.6126 11.7715 14.8942 11.7715H111.2C112.295 11.7734 113.344 12.2102 114.117 12.9859C114.89 13.7616 115.324 14.8129 115.324 15.909V74.9141C115.324 76.01 114.89 77.0611 114.117 77.8365C113.343 78.6119 112.295 79.0483 111.2 79.0498Z" fill="#6C63FF"/>
<path d="M109.015 14.2051H17.0373C14.9137 14.2051 13.1921 15.9292 13.1921 18.056V71.5403C13.1921 73.6671 14.9137 75.3912 17.0373 75.3912H109.015C111.139 75.3912 112.86 73.6671 112.86 71.5403V18.056C112.86 15.9292 111.139 14.2051 109.015 14.2051Z" fill="#1A9AFA"/>
<path d="M109.015 14.2051H17.0373C14.9137 14.2051 13.1921 15.9292 13.1921 18.056V71.5403C13.1921 73.6671 14.9137 75.3912 17.0373 75.3912H109.015C111.139 75.3912 112.86 73.6671 112.86 71.5403V18.056C112.86 15.9292 111.139 14.2051 109.015 14.2051Z" fill="#6C63FF"/>
<path d="M109.4 14.2051H17.4218C15.2982 14.2051 13.5767 15.9292 13.5767 18.056V71.5403C13.5767 73.6671 15.2982 75.3912 17.4218 75.3912H109.4C111.523 75.3912 113.245 73.6671 113.245 71.5403V18.056C113.245 15.9292 111.523 14.2051 109.4 14.2051Z" fill="url(#paint1_linear)"/>
<path d="M53.3894 40.504C53.3894 40.504 52.1739 38.9874 51.1826 40.2394C50.1912 41.4914 51.6655 44.4626 54.0036 44.5156C56.3416 44.5685 53.3894 40.504 53.3894 40.504Z" fill="url(#paint2_linear)"/>
<path d="M37.4841 75.3906H37.8158C37.6245 75.7629 37.4841 75.3906 37.4841 75.3906Z" stroke="#6C62FF" stroke-width="0.74" stroke-miterlimit="10"/>
<path d="M70.066 54.2055C70.066 54.2055 69.7143 56.0305 71.8464 57.5873C71.3289 58.3375 69.9329 59.7775 67.5566 60.44C66.5006 60.7269 65.4045 60.8367 64.3128 60.7648C62.4467 60.659 60.8029 59.8614 59.489 58.9215L59.2831 58.77C58.2652 58.0015 57.3469 57.1088 56.5496 56.1127C58.1204 55.1162 59.4343 53.7966 58.0548 52.6286C58.0466 52.6202 58.0374 52.6128 58.0275 52.6067C58.0143 52.5941 58.0003 52.5826 57.9856 52.572L57.9601 52.5501C52.7117 48.4856 53.1253 34.4817 53.1253 34.4817C58.4466 14.2232 71.5439 23.3633 74.3685 24.4437C77.1932 25.5242 79.2087 32.2186 77.9349 39.6321C76.4533 48.2119 70.066 54.2055 70.066 54.2055Z" fill="url(#paint3_linear)"/>
<path d="M70.066 54.2055C70.066 54.2055 69.7143 56.0305 71.8464 57.5873C71.3289 58.3375 69.9329 59.7775 67.5566 60.44C66.5006 60.7269 65.4045 60.8367 64.3128 60.7648C62.4467 60.659 60.8029 59.8614 59.489 58.9215L59.2831 58.77C58.2652 58.0015 57.3469 57.1088 56.5496 56.1127C58.1204 55.1162 59.4343 53.7966 58.0548 52.6286C58.0466 52.6202 58.0374 52.6128 58.0275 52.6067C58.0143 52.5941 58.0003 52.5826 57.9856 52.572L57.9601 52.5501C52.7117 48.4856 53.1253 34.4817 53.1253 34.4817C58.4466 14.2232 71.5439 23.3633 74.3685 24.4437C77.1932 25.5242 79.2087 32.2186 77.9349 39.6321C76.4533 48.2119 70.066 54.2055 70.066 54.2055Z" fill="url(#paint4_linear)"/>
<path d="M93.765 75.3912H38.1831C38.3653 75.0445 38.5877 74.048 38.7881 71.4874C39.6793 60.0641 53.8098 57.6733 53.8098 57.6733C54.5121 57.392 55.1989 57.0733 55.8672 56.7188L58.0431 59.2739C58.6555 59.9911 60.2664 60.5368 60.2664 60.5368C68.5837 64.6031 72.2156 59.7575 73.1414 58.1551C76.274 59.7758 84.2122 62.2689 88.5767 65.5741C93.3695 69.1969 93.765 75.3912 93.765 75.3912Z" fill="#1A9AFA"/>
<path d="M93.765 75.3912H38.1831C38.3653 75.0445 38.5877 74.048 38.7881 71.4874C39.6793 60.0641 53.8098 57.6733 53.8098 57.6733C54.5121 57.392 55.1989 57.0733 55.8672 56.7188L58.0431 59.2739C58.6555 59.9911 60.2664 60.5368 60.2664 60.5368C68.5837 64.6031 72.2156 59.7575 73.1414 58.1551C76.274 59.7758 84.2122 62.2689 88.5767 65.5741C93.3695 69.1969 93.765 75.3912 93.765 75.3912Z" fill="#6C63FF"/>
<path d="M93.765 75.3912H38.1831C38.3653 75.0445 38.5877 74.048 38.7881 71.4874C39.6793 60.0641 53.8098 57.6733 53.8098 57.6733C54.5121 57.392 55.1989 57.0733 55.8672 56.7188L58.0431 59.2739C58.6555 59.9911 60.2664 60.5368 60.2664 60.5368C68.5837 64.6031 72.2156 59.7575 73.1414 58.1551C76.274 59.7758 84.2122 62.2689 88.5767 65.5741C93.3695 69.1969 93.765 75.3912 93.765 75.3912Z" fill="url(#paint5_linear)"/>
<path d="M93.765 75.3912H38.1831C38.3653 75.0445 38.5877 74.048 38.7881 71.4874C39.6793 60.0641 53.8098 57.6733 53.8098 57.6733C54.5121 57.392 55.1989 57.0733 55.8672 56.7188L58.0431 59.2739C58.6555 59.9911 60.2664 60.5368 60.2664 60.5368C68.5837 64.6031 72.2156 59.7575 73.1414 58.1551C76.274 59.7758 84.2122 62.2689 88.5767 65.5741C93.3695 69.1969 93.765 75.3912 93.765 75.3912Z" fill="url(#paint6_linear)"/>
<path d="M91.5898 75.3907L93.5926 56.7383H102.256L103.076 75.5568L91.5898 75.3907Z" fill="#1A9AFA"/>
<path d="M91.5898 75.3907L93.5926 56.7383H102.256L103.076 75.5568L91.5898 75.3907Z" fill="#6C63FF"/>
<path d="M91.5898 75.3907L93.5926 56.7383H102.256L103.076 75.5568L91.5898 75.3907Z" fill="url(#paint7_linear)"/>
<path d="M107.803 42.3778C107.663 42.7702 106.843 44.1025 106.099 45.4093C105.456 46.5427 104.875 47.6542 104.849 48.1159C104.796 49.1051 103.486 53.4543 102.037 54.7793C101.144 55.5969 101.553 56.7358 101.553 56.7358L99.6993 56.796L94.05 56.9785C94.05 56.9785 94.5092 56.1098 93.8495 55.7576C93.1899 55.4053 87.2891 48.2053 87.2891 48.2053C87.2891 48.2053 87.7173 46.0937 90.2559 47.5027C92.7944 48.9116 93.2154 50.045 93.8459 49.9264C94.4764 49.8078 94.5329 40.1019 94.5329 40.1019C94.5329 40.1019 94.666 35.6651 95.8414 34.8512C97.0168 34.0372 96.8091 37.7932 96.8091 37.7932L97.5854 42.8852C97.5854 42.8852 99.4897 34.7982 100.064 34.4332C100.638 34.0682 101.768 34.3785 101.487 35.9353C101.421 36.3003 101.041 40.3246 101.041 40.3246L100.727 42.9637C100.727 42.9637 103.712 36.4828 104.257 36.2729C104.802 36.063 105.662 36.3222 105.401 37.4191C105.141 38.5159 103.829 44.1518 103.789 44.3288C103.898 44.1993 106.457 41.1167 107.069 40.8119C107.681 40.5071 108.064 41.6478 107.803 42.3778Z" fill="url(#paint8_linear)"/>
<path d="M73.0328 57.6732C73.0328 57.6732 72.0232 62.2523 66.7056 62.5279C58.423 62.9586 55.1719 56.3135 55.1719 56.3135L56.1578 55.6035C56.1578 55.6035 56.2908 55.7988 56.5441 56.1145C57.5555 57.3757 60.4713 60.5477 64.3128 60.7758C68.7047 61.0277 71.1248 58.6405 71.8464 57.5965C71.9057 57.5119 71.9605 57.4242 72.0104 57.3337L73.0328 57.6732Z" fill="white"/>
<path d="M44.2437 17.2617H18.8975C18.3452 17.2617 17.8975 17.7094 17.8975 18.2617V37.9365C17.8975 38.4888 18.3452 38.9365 18.8975 38.9365H44.2437C44.796 38.9365 45.2437 38.4888 45.2437 37.9365V18.2617C45.2437 17.7094 44.796 17.2617 44.2437 17.2617Z" fill="url(#paint9_linear)"/>
<path d="M44.2437 17.2617H18.8975C18.3452 17.2617 17.8975 17.7094 17.8975 18.2617V37.9365C17.8975 38.4888 18.3452 38.9365 18.8975 38.9365H44.2437C44.796 38.9365 45.2437 38.4888 45.2437 37.9365V18.2617C45.2437 17.7094 44.796 17.2617 44.2437 17.2617Z" fill="url(#paint10_linear)"/>
<path d="M36.0883 24.1289C36.1138 24.2537 36.1082 24.3828 36.0719 24.5049C36.0242 24.7279 35.925 24.9367 35.7822 25.1144C35.7096 25.2022 35.6193 25.2735 35.5172 25.3238C35.4151 25.3742 35.3036 25.4023 35.1899 25.4065C35.1742 25.4083 35.1583 25.4064 35.1434 25.401C35.1286 25.3957 35.1152 25.3869 35.1043 25.3754C35.0923 25.3576 35.086 25.3366 35.086 25.3152C35.0715 24.9757 35.0551 24.4611 35.2683 24.1763C35.4651 23.9318 35.9717 23.7018 36.0883 24.1289Z" fill="url(#paint11_linear)"/>
<path d="M27.432 24.1109C27.348 24.1608 27.2788 24.2323 27.2317 24.318C27.1846 24.4037 27.1613 24.5004 27.1642 24.5982C27.1567 24.8018 27.2212 25.0016 27.3464 25.1622C27.4578 25.2906 27.5896 25.3997 27.7364 25.4852C27.9099 25.6178 28.1169 25.6994 28.3341 25.7207C28.3642 25.724 28.3947 25.7202 28.4232 25.7098C28.4516 25.6993 28.4773 25.6824 28.4981 25.6604C28.5232 25.6228 28.5354 25.5779 28.5327 25.5327C28.5546 25.0071 28.2849 23.6966 27.432 24.1109Z" fill="url(#paint12_linear)"/>
<path d="M28.2084 25.0309C28.1392 25.0416 28.0685 25.0328 28.0041 25.0054C27.9397 24.978 27.8842 24.9331 27.8439 24.8758C27.7091 24.6823 27.6617 24.4469 27.4794 24.5509C27.2972 24.6549 27.4157 25.051 27.5706 25.2682C27.7255 25.4853 28.2375 25.6496 28.325 25.5018C28.4125 25.3539 28.2084 25.0309 28.2084 25.0309Z" fill="url(#paint13_linear)"/>
<path d="M35.1061 24.7935C35.1739 24.8038 35.2432 24.7946 35.306 24.7672C35.3689 24.7397 35.4228 24.6951 35.4614 24.6384C35.5981 24.4449 35.6437 24.2095 35.8259 24.3153C36.0081 24.4212 35.8915 24.8136 35.7348 25.0308C35.5781 25.248 35.0696 25.414 34.9821 25.2644C34.8947 25.1147 35.1061 24.7935 35.1061 24.7935Z" fill="url(#paint14_linear)"/>
<path d="M21.2179 38.9366C21.2179 38.9366 20.8662 33.173 25.6717 30.7237C30.4773 28.2744 41.8342 30.3769 41.2529 38.9366H21.2179Z" fill="#1A9AFA"/>
<path d="M21.2179 38.9366C21.2179 38.9366 20.8662 33.173 25.6717 30.7237C30.4773 28.2744 41.8342 30.3769 41.2529 38.9366H21.2179Z" fill="#6C63FF"/>
<path d="M29.5915 26.6777V28.3769C29.5916 28.7624 29.4553 29.1355 29.2067 29.4299C28.9582 29.7243 28.6134 29.9209 28.2338 29.9848L27.042 30.1837C27.042 30.1837 28.7587 33.9288 32.3523 32.9378C35.946 31.9468 36.1046 30.9484 36.1046 30.9484L35.2499 30.651C34.8939 30.5268 34.5852 30.2951 34.3662 29.9878C34.1472 29.6806 34.0287 29.3129 34.0271 28.9354L34.018 26.6777H29.5915Z" fill="url(#paint15_linear)"/>
<path d="M27.9788 23.0254C27.9788 23.0254 27.8567 25.4765 29.3128 27.4677C30.891 29.6268 33.0778 30.0228 34.5393 27.4677C34.9621 26.7377 35.7421 22.8174 35.4268 21.4613C35.1115 20.1053 29.9032 16.2434 27.9788 23.0254Z" fill="url(#paint16_linear)"/>
<path d="M27.2898 21.0937C27.3998 21.0267 27.4988 20.943 27.5832 20.8455C27.6565 20.7011 27.691 20.5401 27.6834 20.3783C27.7655 19.2833 28.7313 18.4455 29.7482 18.0331C31.5705 17.2903 33.8321 17.606 35.2918 18.9456C35.8203 19.4274 36.2795 20.0407 36.9647 20.2469C37.1052 20.2683 37.2381 20.3248 37.351 20.4112C37.5715 20.6265 37.4075 21.0098 37.1779 21.2179C37.1222 21.2603 37.0772 21.3153 37.0467 21.3785C36.9793 21.561 37.218 21.7143 37.4112 21.7763C37.2369 22.0134 37.0177 22.2137 36.7661 22.3658C36.8936 22.3786 36.9355 22.5629 36.8699 22.6724C36.7903 22.7731 36.6903 22.8559 36.5765 22.9152C36.2576 23.1415 36.0973 23.5229 35.8932 23.8569C35.6891 24.1909 35.3683 24.5158 34.982 24.4921C35.2162 23.6009 35.1157 22.6547 34.6995 21.8329C32.9209 22.3129 31.0548 21.7398 29.2744 21.2525C29.1429 21.1993 28.9958 21.1993 28.8643 21.2525C28.6365 21.3839 28.7094 21.7252 28.8133 21.9661C28.5892 21.9661 28.478 22.2381 28.4324 22.4589C28.3666 22.7891 28.3288 23.1243 28.3194 23.4609C28.3194 23.6616 28.4652 24.3278 28.3723 24.4702C28.1901 24.7494 27.924 24.3059 27.7636 24.0924C27.2497 23.4007 26.406 21.8074 27.2898 21.0937Z" fill="#3F3D56"/>
<path d="M44.2437 41.6211H18.8975C18.3452 41.6211 17.8975 42.0688 17.8975 42.6211V62.2959C17.8975 62.8481 18.3452 63.2959 18.8975 63.2959H44.2437C44.796 63.2959 45.2437 62.8481 45.2437 62.2959V42.6211C45.2437 42.0688 44.796 41.6211 44.2437 41.6211Z" fill="url(#paint17_linear)"/>
<path d="M44.2437 41.6211H18.8975C18.3452 41.6211 17.8975 42.0688 17.8975 42.6211V62.2959C17.8975 62.8481 18.3452 63.2959 18.8975 63.2959H44.2437C44.796 63.2959 45.2437 62.8481 45.2437 62.2959V42.6211C45.2437 42.0688 44.796 41.6211 44.2437 41.6211Z" fill="url(#paint18_linear)"/>
<path d="M14.8941 79.0505L0.759861 100.32C0.510321 100.696 0.36723 101.132 0.345829 101.583C0.324428 102.034 0.425519 102.482 0.638333 102.88C0.851147 103.278 1.16771 103.61 1.55432 103.842C1.94092 104.074 2.38308 104.196 2.8337 104.197H124.853C125.315 104.197 125.767 104.069 126.16 103.827C126.553 103.585 126.871 103.238 127.079 102.826C127.287 102.413 127.376 101.951 127.337 101.49C127.298 101.03 127.132 100.589 126.858 100.218L111.204 79.0469L14.8941 79.0505Z" fill="#1A9AFA"/>
<path d="M14.8941 79.0505L0.759861 100.32C0.510321 100.696 0.36723 101.132 0.345829 101.583C0.324428 102.034 0.425519 102.482 0.638333 102.88C0.851147 103.278 1.16771 103.61 1.55432 103.842C1.94092 104.074 2.38308 104.196 2.8337 104.197H124.853C125.315 104.197 125.767 104.069 126.16 103.827C126.553 103.585 126.871 103.238 127.079 102.826C127.287 102.413 127.376 101.951 127.337 101.49C127.298 101.03 127.132 100.589 126.858 100.218L111.204 79.0469L14.8941 79.0505Z" fill="#6C63FF"/>
<path d="M14.8941 79.0505L0.759861 100.32C0.510321 100.696 0.36723 101.132 0.345829 101.583C0.324428 102.034 0.425519 102.482 0.638333 102.88C0.851147 103.278 1.16771 103.61 1.55432 103.842C1.94092 104.074 2.38308 104.196 2.8337 104.197H124.853C125.315 104.197 125.767 104.069 126.16 103.827C126.553 103.585 126.871 103.238 127.079 102.826C127.287 102.413 127.376 101.951 127.337 101.49C127.298 101.03 127.132 100.589 126.858 100.218L111.204 79.0469L14.8941 79.0505Z" fill="url(#paint19_linear)"/>
<path d="M108.694 82.8668H16.875L17.7115 81.1914H107.441L108.694 82.8668Z" fill="url(#paint20_linear)"/>
<path d="M110.528 85.3201H15.6504L16.875 82.8672H108.694L110.528 85.3201Z" fill="url(#paint21_linear)"/>
<path d="M112.465 87.9118H14.3564L15.6503 85.3184H110.528L112.465 87.9118Z" fill="url(#paint22_linear)"/>
<path d="M114.209 90.2446H13.1921L14.3566 87.9121H112.465L114.209 90.2446Z" fill="url(#paint23_linear)" fill-opacity="0.43"/>
<path d="M47.1333 91.8633H80.4059L85.0948 99.567H44.7898L47.1333 91.8633Z" fill="url(#paint24_linear)"/>
<path d="M52.1631 22.1604C52.1795 22.4852 52.2579 22.8156 52.1813 23.1331C52.0824 23.4253 51.927 23.6951 51.7239 23.9271C49.7448 26.6008 49.6501 30.1816 49.6355 33.5088C49.6355 34.3483 49.6355 35.2043 49.876 36.0073C50.1148 36.783 50.5722 37.4674 51.0241 38.1427C51.241 38.4676 53.0014 40.4624 53.3932 40.5044C53.918 40.5609 52.3727 31.7695 62.8549 30.9208C63.9027 30.835 64.9415 30.9664 65.993 31.0011C66.6144 31.0212 67.2358 30.9427 67.8572 30.9664C68.9051 31.0084 69.9147 31.346 70.906 31.68C72.7011 32.2841 74.6109 32.9722 75.7207 34.5071L76.723 33.9596L76.8724 37.597L76.9107 38.4694L77.1349 43.7621L79.4383 40.2817C80.8743 38.1117 82.365 35.4324 81.308 33.0543C80.8087 31.9337 79.801 31.0869 79.3727 29.9353C78.7768 28.331 79.4347 26.5351 79.2451 24.8341C78.8807 21.5198 75.3726 19.3789 72.0614 19.0249C71.3234 18.9464 70.5762 18.93 69.8473 18.7931C69.1262 18.6354 68.4173 18.4262 67.726 18.1671C66.2991 17.6779 64.6535 17.2545 63.3524 18.0174C62.8439 18.3149 62.4412 18.7767 61.8945 19.0194C60.9505 19.4446 59.8626 19.1161 58.8329 19.0066C56.8046 18.7986 52.0191 19.2402 52.1631 22.1604Z" fill="#3F3D56"/>
<path d="M76.9709 41.5743C76.9709 41.5743 78.1864 40.0577 79.176 41.3097C80.1655 42.5617 78.693 45.533 76.3568 45.5859C74.0205 45.6388 76.9709 41.5743 76.9709 41.5743Z" fill="url(#paint25_linear)"/>
<path d="M67.5566 60.4403C67.5566 60.4403 64.0267 62.2489 59.489 58.9218L59.2831 58.7703C58.2774 57.9876 57.3607 57.0965 56.5496 56.113C58.1204 55.1165 59.4343 53.797 58.0548 52.6289C58.7364 53.1764 62.864 56.3539 65.6176 55.602C68.5898 54.7916 67.5784 60.329 67.5566 60.4403Z" fill="url(#paint26_linear)"/>
<path d="M67.5566 60.4403C67.5566 60.4403 64.0267 62.2489 59.489 58.9218L59.2831 58.7703C58.2774 57.9876 57.3607 57.0965 56.5496 56.113C58.1204 55.1165 59.4343 53.797 58.0548 52.6289C58.7364 53.1764 62.864 56.3539 65.6176 55.602C68.5898 54.7916 67.5784 60.329 67.5566 60.4403Z" fill="url(#paint27_linear)"/>
<path d="M106.099 45.4121C105.456 46.5455 104.875 47.657 104.849 48.1187C104.796 49.1079 103.486 53.4571 102.037 54.7821C101.144 55.5998 101.553 56.7386 101.553 56.7386L99.6993 56.7988L99.517 56.7806C99.517 56.7806 100.195 54.063 98.4765 52.8639C96.758 51.6649 94.7315 50.3599 94.9885 48.8999C95.2454 47.4398 96.6049 44.2057 100.091 45.9797C103.577 47.7537 106.099 45.4121 106.099 45.4121Z" fill="url(#paint28_linear)"/>
<path d="M100.532 23.215C101.506 23.215 102.296 22.424 102.296 21.4483C102.296 20.4726 101.506 19.6816 100.532 19.6816C99.5579 19.6816 98.7681 20.4726 98.7681 21.4483C98.7681 22.424 99.5579 23.215 100.532 23.215Z" fill="white"/>
<path d="M37.6717 56.4764C37.675 56.8162 37.6428 57.1554 37.5755 57.4884C37.4396 58.0521 37.1072 58.5469 36.7805 59.0267C36.6263 58.8119 36.4214 58.6387 36.1841 58.5226C35.9469 58.4066 35.6847 58.3512 35.421 58.3615C34.65 58.3299 33.8857 58.4529 33.1239 58.6034C31.9459 58.8346 30.7728 59.1306 29.5857 59.0233C28.9847 58.9685 28.3945 58.8113 27.791 58.7897C26.6188 58.7456 25.4971 59.2121 24.3788 59.5672C24.2031 59.6229 23.9544 59.6437 23.8906 59.4699C23.8707 59.3928 23.8765 59.3113 23.9071 59.2379C24.1026 58.6017 24.2448 57.9503 24.3324 57.2905C24.4617 56.1696 24.349 55.0362 24.2346 53.9137C24.1111 52.6889 23.9859 51.4632 23.8126 50.2442C23.6327 48.9837 23.4031 47.6724 23.7836 46.4575C23.8758 46.1247 24.0464 45.819 24.281 45.5662C24.4792 45.3815 24.7053 45.2294 24.9508 45.1155C25.419 44.8669 25.9157 44.6765 26.4298 44.5484C26.8799 44.4545 27.3362 44.3936 27.7951 44.3663L30.1561 44.1676C30.7662 44.116 31.3863 44.0653 31.9865 44.1842C32.6357 44.3163 33.2307 44.64 33.695 45.1138C33.7696 45.1895 33.8501 45.2751 33.9553 45.2859C34.0432 45.2865 34.1295 45.262 34.204 45.2153C34.9095 44.876 35.6738 44.8827 36.4091 45.1113C37.0989 45.3259 37.2647 45.8322 37.2904 46.5357C37.3086 46.9747 37.3174 47.4135 37.3169 47.852C37.317 49.2211 37.2339 50.589 37.0682 51.948C36.9712 52.7379 36.8502 53.5636 37.1279 54.3095C37.2589 54.6587 37.4727 54.9747 37.5797 55.3314C37.6866 55.6882 37.6792 56.0923 37.6717 56.4764Z" fill="#3F3D56"/>
<path d="M37.6716 56.4784C37.6749 56.8182 37.6427 57.1573 37.5755 57.4904C37.4395 58.0541 37.1071 58.5489 36.7805 59.0287C36.6262 58.8138 36.4213 58.6407 36.1841 58.5246C35.9468 58.4085 35.6847 58.3532 35.4209 58.3634C34.6499 58.3318 33.8856 58.4549 33.1238 58.6054L30.2903 57.7132L30.9087 53.0717L33.525 47.0366C33.525 47.0366 36.3021 45.6422 36.9496 46.7339C37.0731 46.9418 37.1983 47.3434 37.3168 47.8581C37.3169 49.2273 37.2339 50.5951 37.0681 51.9542C36.9711 52.7441 36.8501 53.5698 37.1278 54.3156C37.2588 54.6649 37.4727 54.9809 37.5796 55.3376C37.6865 55.6943 37.6791 56.0942 37.6716 56.4784Z" fill="#25233A"/>
<path d="M24.3324 58.2645C24.3324 58.2645 23.2225 58.6563 22.6744 59.1434C21.7087 60.0015 21.3394 61.1209 21.3394 62.1743C21.3394 63.2278 22.6744 63.2278 22.6744 63.2278H40.9122C40.9122 63.2278 39.2293 58.4482 32.4333 57.9843C27.897 57.6783 28.4466 57.6433 26.7364 57.6566C25.898 57.6628 25.0735 57.8712 24.3324 58.2645Z" fill="#1A9AFA"/>
<path d="M24.3324 58.2645C24.3324 58.2645 23.2225 58.6563 22.6744 59.1434C21.7087 60.0015 21.3394 61.1209 21.3394 62.1743C21.3394 63.2278 22.6744 63.2278 22.6744 63.2278H40.9122C40.9122 63.2278 39.2293 58.4482 32.4333 57.9843C27.897 57.6783 28.4466 57.6433 26.7364 57.6566C25.898 57.6628 25.0735 57.8712 24.3324 58.2645Z" fill="#6C63FF"/>
<path d="M33.7497 56.7065C32.9472 56.7065 32.4026 56.6932 32.0312 56.714C31.368 56.7514 31.2577 56.8936 31.2213 57.3884C31.1732 58.0369 32.0179 59.8704 31.7452 60.5622C31.7235 60.6264 31.6855 60.6837 31.6349 60.7285C31.5843 60.7732 31.5228 60.804 31.4567 60.8175C31.4567 60.8175 28.2435 60.8175 26.021 57.7135C26.021 57.7135 27.587 56.1536 27.4419 53.9426C27.2968 51.7316 26.506 48.1054 27.2935 47.7154C28.081 47.3254 34.9849 45.7896 36.0211 48.5735C37.0574 51.3574 35.9971 56.7132 33.7497 56.7065Z" fill="url(#paint29_linear)"/>
<path d="M33.7497 56.7065C32.9472 56.7065 32.4026 56.6932 32.0312 56.714C31.368 56.7514 31.2577 56.8936 31.2213 57.3884C31.1732 58.0369 32.0179 59.8704 31.7452 60.5622C31.7235 60.6264 31.6855 60.6837 31.6349 60.7285C31.5843 60.7732 31.5228 60.804 31.4567 60.8175C31.4567 60.8175 28.2435 60.8175 26.021 57.7135C26.021 57.7135 27.587 56.1536 27.4419 53.9426C27.2968 51.7316 26.506 48.1054 27.2935 47.7154C28.081 47.3254 34.9849 45.7896 36.0211 48.5735C37.0574 51.3574 35.9971 56.7132 33.7497 56.7065Z" fill="url(#paint30_linear)"/>
<path d="M30.1893 48.8352C29.8992 49.5836 29.9348 50.4334 29.8776 51.2466C29.8204 52.0598 29.6173 52.9495 29.0271 53.4085C28.8945 53.5116 28.7419 53.5915 28.64 53.7336C28.3796 54.0954 28.5571 54.6383 28.494 55.1023C28.3755 55.9771 27.4719 56.3596 27.0093 57.0663C26.7266 57.4987 26.6147 58.0525 26.342 58.4932C26.0692 58.9339 25.5022 59.2366 25.1341 58.899C24.9451 58.7252 24.8705 58.4367 24.8108 58.1664C24.0688 54.817 23.8468 51.3728 24.1526 47.9555C24.2637 46.7215 24.5447 45.3221 25.4964 44.7417C25.872 44.513 26.3039 44.4481 26.7258 44.3866C29.1589 44.0341 31.8117 43.7314 33.8982 45.2181C34.0906 45.3545 34.2829 45.5158 34.3774 45.7511C34.8673 46.9726 32.9333 46.9019 32.4309 47.0292C31.5132 47.2562 30.5906 47.8025 30.1893 48.8352Z" fill="#3F3D56"/>
<path d="M31.7452 60.5606C31.6629 60.5864 31.5747 60.5864 31.4924 60.5606C31.3208 60.5099 31.2014 60.3602 31.0953 60.2163C30.5556 59.4913 30.0508 58.693 29.9455 57.7942C29.9049 57.4482 29.9388 57.0616 30.1809 56.8113C30.3757 56.6109 30.6659 56.5386 30.9436 56.507C31.2072 56.477 31.1525 56.5294 31.732 56.5602C31.8372 56.566 32.8395 56.6325 32.934 56.6966C31.4319 56.7173 31.2578 56.8878 31.2213 57.3826C31.1732 58.0353 32.018 59.8688 31.7452 60.5606Z" fill="url(#paint31_linear)"/>
<path d="M39.3081 63.2297C39.3081 63.2297 40.4844 60.973 41.2148 60.8183C41.9451 60.6637 42.1814 60.0816 42.6871 59.9627C43.1928 59.8438 43.25 60.2238 43.3569 61.0861C43.4638 61.9483 42.6995 63.2305 42.6995 63.2305L39.3081 63.2297Z" fill="url(#paint32_linear)"/>
</g>
<defs>
<linearGradient id="paint0_linear" x1="63.5055" y1="97.0114" x2="65.5508" y2="139.885" gradientUnits="userSpaceOnUse">
<stop stop-opacity="0"/>
<stop offset="0.97"/>
</linearGradient>
<linearGradient id="paint1_linear" x1="63.9151" y1="8.27103" x2="63.1027" y2="79.8126" gradientUnits="userSpaceOnUse">
<stop stop-color="white" stop-opacity="0.61"/>
<stop offset="1" stop-color="white" stop-opacity="0"/>
</linearGradient>
<linearGradient id="paint2_linear" x1="53.5391" y1="42.594" x2="50.8521" y2="43.8778" gradientUnits="userSpaceOnUse">
<stop stop-color="#ECC4D7"/>
<stop offset="0.42" stop-color="#EFD4D1"/>
<stop offset="1" stop-color="#F2EAC9"/>
</linearGradient>
<linearGradient id="paint3_linear" x1="8739.88" y1="8881.92" x2="12226.8" y2="8881.92" gradientUnits="userSpaceOnUse">
<stop stop-color="#ECC4D7"/>
<stop offset="0.42" stop-color="#EFD4D1"/>
<stop offset="1" stop-color="#F2EAC9"/>
</linearGradient>
<linearGradient id="paint4_linear" x1="43.1634" y1="39.6998" x2="66.6089" y2="27.3775" gradientUnits="userSpaceOnUse">
<stop stop-color="#ECC4D7"/>
<stop offset="0.42" stop-color="#EFD4D1"/>
<stop offset="1" stop-color="#F2EAC9"/>
</linearGradient>
<linearGradient id="paint5_linear" x1="64.7452" y1="26.5308" x2="63.5091" y2="67.0574" gradientUnits="userSpaceOnUse">
<stop stop-color="white"/>
<stop offset="1" stop-color="white" stop-opacity="0"/>
</linearGradient>
<linearGradient id="paint6_linear" x1="65.5753" y1="79.4631" x2="65.5753" y2="57.9594" gradientUnits="userSpaceOnUse">
<stop stop-opacity="0.29"/>
<stop offset="1" stop-opacity="0"/>
</linearGradient>
<linearGradient id="paint7_linear" x1="97.1177" y1="83.534" x2="97.1177" y2="61.2032" gradientUnits="userSpaceOnUse">
<stop stop-opacity="0.49"/>
<stop offset="1" stop-opacity="0"/>
</linearGradient>
<linearGradient id="paint8_linear" x1="89.6471" y1="36.8036" x2="111.324" y2="60.0012" gradientUnits="userSpaceOnUse">
<stop stop-color="#ECC4D7"/>
<stop offset="0.42" stop-color="#EFD4D1"/>
<stop offset="1" stop-color="#F2EAC9"/>
</linearGradient>
<linearGradient id="paint9_linear" x1="5133.84" y1="1590.42" x2="4934.2" y2="6671.93" gradientUnits="userSpaceOnUse">
<stop stop-color="white"/>
<stop offset="1" stop-color="white" stop-opacity="0"/>
</linearGradient>
<linearGradient id="paint10_linear" x1="31.5706" y1="17.2617" x2="31.5706" y2="48.5931" gradientUnits="userSpaceOnUse">
<stop stop-color="#5BD8FF"/>
<stop offset="0.337017" stop-color="#6FB8FC" stop-opacity="0.491713"/>
<stop offset="1" stop-color="white" stop-opacity="0"/>
</linearGradient>
<linearGradient id="paint11_linear" x1="296.605" y1="244.315" x2="302.359" y2="244.315" gradientUnits="userSpaceOnUse">
<stop stop-color="#ECC4D7"/>
<stop offset="0.42" stop-color="#EFD4D1"/>
<stop offset="1" stop-color="#F2EAC9"/>
</linearGradient>
<linearGradient id="paint12_linear" x1="317.042" y1="271.853" x2="327.374" y2="271.853" gradientUnits="userSpaceOnUse">
<stop stop-color="#ECC4D7"/>
<stop offset="0.42" stop-color="#EFD4D1"/>
<stop offset="1" stop-color="#F2EAC9"/>
</linearGradient>
<linearGradient id="paint13_linear" x1="234.23" y1="176.672" x2="233.281" y2="180.681" gradientUnits="userSpaceOnUse">
<stop stop-color="#ECC4D7"/>
<stop offset="0.42" stop-color="#EFD4D1"/>
<stop offset="1" stop-color="#F2EAC9"/>
</linearGradient>
<linearGradient id="paint14_linear" x1="-814.189" y1="175.054" x2="-813.25" y2="179.062" gradientUnits="userSpaceOnUse">
<stop stop-color="#ECC4D7"/>
<stop offset="0.42" stop-color="#EFD4D1"/>
<stop offset="1" stop-color="#F2EAC9"/>
</linearGradient>
<linearGradient id="paint15_linear" x1="31.5423" y1="28.5346" x2="31.7532" y2="33.9827" gradientUnits="userSpaceOnUse">
<stop stop-color="#ECC4D7"/>
<stop offset="0.42" stop-color="#EFD4D1"/>
<stop offset="1" stop-color="#F2EAC9"/>
</linearGradient>
<linearGradient id="paint16_linear" x1="26.9771" y1="19.0229" x2="35.9406" y2="28.3975" gradientUnits="userSpaceOnUse">
<stop stop-color="#ECC4D7"/>
<stop offset="0.42" stop-color="#EFD4D1"/>
<stop offset="1" stop-color="#F2EAC9"/>
</linearGradient>
<linearGradient id="paint17_linear" x1="5133.84" y1="1614.78" x2="4934.2" y2="6696.28" gradientUnits="userSpaceOnUse">
<stop stop-color="white"/>
<stop offset="1" stop-color="white" stop-opacity="0"/>
</linearGradient>
<linearGradient id="paint18_linear" x1="17.8975" y1="43.4993" x2="26.2062" y2="84.572" gradientUnits="userSpaceOnUse">
<stop stop-color="#8A8FFF"/>
<stop offset="0.843505" stop-color="white" stop-opacity="0"/>
</linearGradient>
<linearGradient id="paint19_linear" x1="78.7658" y1="51.9954" x2="62.4401" y2="106.209" gradientUnits="userSpaceOnUse">
<stop stop-color="white"/>
<stop offset="0.89" stop-color="white" stop-opacity="0"/>
</linearGradient>
<linearGradient id="paint20_linear" x1="61.8398" y1="112.895" x2="61.8398" y2="73.6093" gradientUnits="userSpaceOnUse">
<stop/>
<stop offset="1" stop-opacity="0"/>
</linearGradient>
<linearGradient id="paint21_linear" x1="63.7733" y1="53.914" x2="62.7516" y2="100.7" gradientUnits="userSpaceOnUse">
<stop stop-color="white"/>
<stop offset="0.6" stop-color="white" stop-opacity="0.48"/>
<stop offset="0.87" stop-color="white" stop-opacity="0.13"/>
<stop offset="1" stop-color="white" stop-opacity="0"/>
</linearGradient>
<linearGradient id="paint22_linear" x1="62.4011" y1="134.394" x2="62.4011" y2="73.5816" gradientUnits="userSpaceOnUse">
<stop offset="0.272498"/>
<stop offset="1" stop-opacity="0"/>
</linearGradient>
<linearGradient id="paint23_linear" x1="134.886" y1="56.6535" x2="19.3651" y2="137.271" gradientUnits="userSpaceOnUse">
<stop stop-color="white"/>
<stop offset="1" stop-color="white" stop-opacity="0"/>
</linearGradient>
<linearGradient id="paint24_linear" x1="56.8594" y1="133.984" x2="58.0955" y2="88.9089" gradientUnits="userSpaceOnUse">
<stop/>
<stop offset="1" stop-opacity="0"/>
</linearGradient>
<linearGradient id="paint25_linear" x1="73.8759" y1="43.4217" x2="78.3814" y2="45.5722" gradientUnits="userSpaceOnUse">
<stop stop-color="#ECC4D7"/>
<stop offset="0.42" stop-color="#EFD4D1"/>
<stop offset="1" stop-color="#F2EAC9"/>
</linearGradient>
<linearGradient id="paint26_linear" x1="4471.29" y1="2658.17" x2="4327.21" y2="3920.67" gradientUnits="userSpaceOnUse">
<stop stop-color="#ECC4D7"/>
<stop offset="0.42" stop-color="#EFD4D1"/>
<stop offset="1" stop-color="#F2EAC9"/>
</linearGradient>
<linearGradient id="paint27_linear" x1="61.4248" y1="53.7601" x2="57.7623" y2="63.4402" gradientUnits="userSpaceOnUse">
<stop stop-color="#ECC4D7"/>
<stop offset="0.42" stop-color="#EFD4D1"/>
<stop offset="1" stop-color="#F2EAC9"/>
</linearGradient>
<linearGradient id="paint28_linear" x1="96.7026" y1="47.5565" x2="102.789" y2="60.2436" gradientUnits="userSpaceOnUse">
<stop stop-color="#ECC4D7"/>
<stop offset="0.42" stop-color="#EFD4D1"/>
<stop offset="1" stop-color="#F2EAC9"/>
</linearGradient>
<linearGradient id="paint29_linear" x1="4086.13" y1="2608.77" x2="3426.65" y2="5797.25" gradientUnits="userSpaceOnUse">
<stop stop-color="#ECC4D7"/>
<stop offset="0.42" stop-color="#EFD4D1"/>
<stop offset="1" stop-color="#F2EAC9"/>
</linearGradient>
<linearGradient id="paint30_linear" x1="28.6372" y1="50.4528" x2="34.7676" y2="57.3862" gradientUnits="userSpaceOnUse">
<stop stop-color="#ECC4D7"/>
<stop offset="0.42" stop-color="#EFD4D1"/>
<stop offset="1" stop-color="#F2EAC9"/>
</linearGradient>
<linearGradient id="paint31_linear" x1="30.2974" y1="57.0675" x2="33.2007" y2="61.1446" gradientUnits="userSpaceOnUse">
<stop stop-color="#ECC4D7"/>
<stop offset="0.42" stop-color="#EFD4D1"/>
<stop offset="1" stop-color="#F2EAC9"/>
</linearGradient>
<linearGradient id="paint32_linear" x1="1917.38" y1="1496.21" x2="2116.11" y2="1496.21" gradientUnits="userSpaceOnUse">
<stop stop-color="#ECC4D7"/>
<stop offset="0.42" stop-color="#EFD4D1"/>
<stop offset="1" stop-color="#F2EAC9"/>
</linearGradient>
<clipPath id="clip0">
<rect width="127" height="110" fill="white"/>
</clipPath>
</defs>
</svg>
