<svg width="25" height="25" viewBox="0 0 25 25" fill="none" xmlns="http://www.w3.org/2000/svg">
<rect width="25" height="25" rx="6" fill="#363636"/>
<g clip-path="url(#clip0)">
<path d="M16.4726 11.4087C17.0442 9.85317 17.4915 8.56984 17.8127 7.55561C18.1316 6.5445 18.2933 5.92228 18.2933 5.68895C18.2933 5.44395 18.2389 5.25028 18.13 5.11495C18.025 4.97961 17.878 4.90961 17.689 4.90961C17.4479 4.90961 17.199 5.10795 16.9579 5.50461C16.709 5.90128 16.4368 6.54217 16.1335 7.42339L14.8501 11.1256L16.4679 11.4072H16.4601V11.4087H16.4726ZM14.7669 14.8582C14.3982 14.8348 14.049 14.7959 13.7216 14.7415C13.3949 14.6793 13.076 14.5937 12.7758 14.4848C12.9135 14.7571 13.0363 15.0293 13.1429 15.3015C13.2502 15.5737 13.3373 15.8382 13.4073 16.1104C13.6096 15.8537 13.8273 15.6204 14.0529 15.4104C14.28 15.2004 14.5196 15.0137 14.7646 14.8504L14.7669 14.8582ZM13.3187 10.9693L11.9342 6.9715C11.5733 5.95261 11.2965 5.2915 11.0981 4.97261C10.9037 4.6615 10.6898 4.50595 10.4588 4.50595C10.2799 4.50595 10.1345 4.56817 10.0232 4.70817C9.91124 4.84817 9.85679 5.02706 9.85679 5.25261C9.85679 5.6415 10.0046 6.32595 10.3001 7.30595C10.5957 8.27817 11.0468 9.55373 11.6457 11.1404C11.6923 11.0471 11.7701 10.9771 11.8635 10.9382C11.9568 10.8993 12.0812 10.8759 12.2446 10.8759C12.2912 10.8759 12.3923 10.8837 12.5479 10.8837C12.6957 10.8993 12.9523 10.9148 13.3023 10.9537L13.3187 10.9693ZM12.0602 17.1604C12.2065 17.1604 12.3402 17.0904 12.4569 16.9582C12.5736 16.8182 12.6389 16.6782 12.6389 16.5304C12.6389 16.3671 12.5222 15.9859 12.2873 15.3948C12.054 14.8037 11.7585 14.2204 11.4085 13.6448C11.1518 13.2171 10.899 12.8904 10.654 12.6726C10.402 12.4548 10.1679 12.3459 9.94624 12.3459C9.76735 12.3459 9.56979 12.4548 9.34968 12.6882C9.1319 12.9137 9.02301 13.1237 9.02301 13.3182C9.02301 13.5204 9.1319 13.8315 9.34424 14.2359C9.55813 14.6482 9.8459 15.0837 10.2029 15.5426C10.5801 16.0482 10.934 16.4371 11.2685 16.7171C11.6013 16.9971 11.8673 17.1371 12.0618 17.1371H12.0602V17.1604ZM8.21412 16.8493C8.33546 16.9971 8.5019 17.2071 8.71657 17.4871C9.2789 18.2648 9.80157 18.6537 10.2799 18.6537C10.4432 18.6537 10.5887 18.5993 10.7178 18.4982C10.8453 18.3893 10.9099 18.2882 10.9099 18.1715C10.9099 18.0393 10.8243 17.8293 10.6532 17.5259C10.4806 17.2226 10.2457 16.8882 9.94779 16.5148C9.60557 16.0793 9.32168 15.7604 9.09379 15.5582C8.86979 15.3559 8.68546 15.2548 8.55168 15.2548C8.25612 15.2548 7.97613 15.4182 7.72724 15.7371C7.47835 16.0482 7.3539 16.4371 7.3539 16.8726C7.3539 17.2226 7.44724 17.6115 7.62612 18.0471C7.80501 18.4748 8.0539 18.9104 8.38835 19.3459C8.8939 20.0226 9.5239 20.5359 10.2706 20.9015C11.0172 21.2593 11.8495 21.4382 12.7517 21.4382C14.4161 21.4382 15.8161 20.8159 16.9361 19.5715C18.0639 18.3271 18.6239 16.7715 18.6239 14.8971C18.6239 14.3215 18.585 13.8626 18.4995 13.5282C18.4139 13.1937 18.2739 12.9448 18.0795 12.7893C17.7295 12.4937 17.045 12.2371 16.0339 12.0037C15.0228 11.7704 13.965 11.6537 12.8606 11.6537C12.5572 11.6537 12.3317 11.7082 12.2072 11.8093C12.0828 11.9104 12.0206 12.0893 12.0206 12.3327C12.0206 12.9161 12.3472 13.3361 13.0006 13.5974C13.6539 13.8618 14.7039 13.9941 16.1583 13.9941H16.6841C16.8008 13.9941 16.9019 14.0407 16.9719 14.1294C17.0419 14.2149 17.0886 14.3472 17.1119 14.5338C16.9641 14.6661 16.6686 14.8216 16.2143 15.0005C15.7555 15.1716 15.4132 15.3505 15.1721 15.5177C14.6588 15.8942 14.2466 16.3422 13.9355 16.8586C13.6243 17.3719 13.4688 17.8619 13.4688 18.3232C13.4688 18.6032 13.5357 18.9454 13.6695 19.3421C13.8017 19.7387 13.8717 19.9822 13.8717 20.0809V20.1665L13.8483 20.2832C13.475 20.2598 13.1795 20.0397 12.9617 19.6221C12.7385 19.2098 12.635 18.6576 12.635 17.9654V17.8487C12.565 17.9071 12.4981 17.9537 12.4328 17.9771C12.3659 18.0035 12.2943 18.0159 12.2228 18.0159C12.145 18.0159 12.0688 18.0113 11.9972 18.0004C11.9272 17.9879 11.8572 17.9693 11.7717 17.9421C11.795 18.0354 11.816 18.1287 11.8308 18.2166C11.8386 18.3099 11.8463 18.3799 11.8463 18.4266C11.8463 18.7424 11.7219 19.0177 11.473 19.2433C11.2241 19.4665 10.9286 19.5777 10.5863 19.5777C10.0497 19.5777 9.49979 19.3133 8.94524 18.7922C8.38912 18.2679 8.11301 17.7499 8.11301 17.2483C8.11301 17.1549 8.12468 17.0694 8.14412 16.9971C8.16357 16.9247 8.20246 16.8648 8.25301 16.8104L8.21412 16.8493ZM17.3973 11.6148C18.1635 11.7548 18.7079 12.0815 19.0229 12.5871C19.3418 13.0848 19.4973 13.8782 19.4973 14.9671C19.4973 17.1215 18.8533 18.8793 17.5591 20.2482C16.2626 21.6171 14.6059 22.3093 12.5915 22.3093C11.7958 22.3093 11.0235 22.1615 10.2768 21.8737C9.52235 21.5859 8.88457 21.1815 8.34012 20.6759C7.72568 20.1082 7.25901 19.5171 6.95568 18.8871C6.64457 18.2571 6.48901 17.6115 6.48901 16.9582C6.48901 16.2193 6.64457 15.6515 6.95568 15.2548C7.26679 14.8504 7.77235 14.5782 8.45679 14.4304C8.32457 14.1271 8.23124 13.8782 8.17679 13.6682C8.11457 13.4582 8.08346 13.3026 8.08346 13.1937C8.08346 12.8048 8.28568 12.4082 8.69012 12.0115C9.09457 11.6071 9.47568 11.4048 9.83346 11.4048C9.98124 11.4048 10.1446 11.4282 10.3157 11.4904C10.4868 11.5448 10.6812 11.6382 10.899 11.7626C10.269 9.93484 9.78679 8.49595 9.49124 7.48484C9.1879 6.46595 9.04012 5.77372 9.04012 5.38484C9.04012 4.85595 9.17235 4.42817 9.44457 4.11706C9.72457 3.80595 10.0979 3.65039 10.5646 3.65039C11.3657 3.65039 12.3846 5.44706 13.6212 9.03495C13.839 9.64939 13.9946 10.1238 14.1112 10.4583L14.5079 9.32817C15.7446 5.78928 16.8023 4.01595 17.6968 4.01595C18.1323 4.01595 18.4823 4.16372 18.739 4.45928C18.9957 4.75717 19.1279 5.14917 19.1279 5.64384C19.1279 6.01717 18.9801 6.70161 18.6923 7.70495C18.4069 8.7005 17.9768 10.0072 17.3935 11.6249" fill="white"/>
</g>
<defs>
<clipPath id="clip0">
<rect width="18.6667" height="18.6667" fill="white" transform="translate(3.6665 3.66602)"/>
</clipPath>
</defs>
</svg>
