<svg width="25" height="25" viewBox="0 0 25 25" fill="none" xmlns="http://www.w3.org/2000/svg">
<rect width="25" height="25" rx="6" fill="#363636"/>
<g clip-path="url(#clip0)">
<path d="M13.0001 21.3996C8.3696 21.3996 4.6001 17.6301 4.6001 12.9996C4.6001 8.36911 8.3696 4.59961 13.0001 4.59961C17.6306 4.59961 21.4001 8.36911 21.4001 12.9996C21.4001 17.6301 17.6306 21.3996 13.0001 21.3996ZM20.0841 14.149C19.8391 14.072 17.8651 13.4819 15.6153 13.8424C16.5533 16.4212 16.9362 18.5212 17.0097 18.958C18.6197 17.8695 19.7649 16.144 20.0862 14.149H20.0841ZM15.8036 19.6146C15.6965 18.9846 15.2786 16.7922 14.2706 14.1756L14.2244 14.1896C10.1714 15.6001 8.7224 18.4071 8.5964 18.6696C9.8074 19.6202 11.3404 20.1858 12.9994 20.1858C13.9934 20.1858 14.9384 19.9828 15.7994 19.616L15.8036 19.6146ZM7.6696 17.8086C7.832 17.5286 9.8011 14.2701 13.502 13.0731C13.5965 13.0416 13.691 13.0143 13.7855 12.9891C13.6035 12.5796 13.4075 12.1722 13.2031 11.7711C9.6191 12.8421 6.1443 12.7966 5.8293 12.7896L5.8265 13.008C5.8265 14.8511 6.5251 16.5339 7.6703 17.8065L7.6696 17.8086ZM5.9756 11.5401C6.2976 11.5457 9.2537 11.5583 12.6095 10.6665C11.4209 8.55391 10.1385 6.77591 9.9495 6.51691C7.9419 7.46191 6.4425 9.30991 5.9763 11.5359L5.9756 11.5401ZM11.3201 6.03601C11.5175 6.30201 12.8216 8.07581 13.9955 10.236C16.547 9.28051 17.6285 7.82801 17.7566 7.64461C16.4896 6.51761 14.8236 5.83441 13.0001 5.83441C12.4226 5.83441 11.8591 5.90441 11.3201 6.03391V6.03601ZM18.5546 8.47411C18.402 8.67711 17.2001 10.2192 14.5478 11.3021C14.7158 11.6451 14.8768 11.9916 15.0238 12.3423C15.0798 12.4683 15.1288 12.5943 15.1778 12.7133C17.5648 12.4123 19.9378 12.8953 20.1758 12.9443C20.1618 11.2503 19.5598 9.69631 18.5588 8.47831L18.5546 8.47411Z" fill="white"/>
</g>
<defs>
<clipPath id="clip0">
<rect width="16.8" height="16.8" fill="white" transform="translate(4.6001 4.59961)"/>
</clipPath>
</defs>
</svg>
