<svg width="25" height="25" viewBox="0 0 25 25" fill="none" xmlns="http://www.w3.org/2000/svg">
<rect width="25" height="25" rx="6" fill="#363636"/>
<g clip-path="url(#clip0)">
<path d="M13.0001 5C8.60599 5 5 8.60599 5 13.0001C5 16.7497 7.63113 20.1559 11.1251 21.0001V18.3534C10.7789 18.4292 10.4603 18.4314 10.1078 18.3275C9.63505 18.188 9.25089 17.873 8.96573 17.3928C8.78397 17.0862 8.46182 16.7536 8.12576 16.7781L8.04336 15.8442C8.77005 15.782 9.39872 16.287 9.77189 16.9139C9.93766 17.1927 10.1285 17.3562 10.3733 17.4285C10.61 17.4982 10.8642 17.4647 11.1603 17.3601C11.2347 16.7672 11.5063 16.5453 11.7115 16.2328V16.2323C9.62773 15.9215 8.79727 14.816 8.46768 13.9434C8.03091 12.7849 8.26529 11.3375 9.03763 10.4228C9.05265 10.405 9.07975 10.3583 9.06925 10.3257C8.71512 9.25602 9.14664 8.37112 9.16251 8.27725C9.57121 8.3981 9.63761 8.15567 10.9378 8.94559L11.1625 9.0806C11.2565 9.13663 11.227 9.10465 11.321 9.09757C11.8638 8.95011 12.4361 8.86869 12.9999 8.86136C13.5681 8.86869 14.1367 8.95011 14.702 9.10355L14.7747 9.11088C14.7684 9.1099 14.7945 9.10624 14.8383 9.08011C16.4625 8.09634 16.4042 8.41788 16.8397 8.27627C16.8554 8.37027 17.2812 9.26957 16.9309 10.3257C16.8836 10.4712 18.339 11.8039 17.5323 13.9431C17.2027 14.816 16.3724 15.9215 14.2887 16.2323V16.2328C14.5557 16.6399 14.8767 16.8564 14.875 17.6963V21.0001C18.369 20.1559 21 16.7497 21 13.0001C21.0001 8.60599 17.3941 5 13.0001 5V5Z" fill="white"/>
</g>
<defs>
<clipPath id="clip0">
<rect width="16.8" height="16.8" fill="white" transform="translate(4.6001 4.59961)"/>
</clipPath>
</defs>
</svg>
