<svg width="202" height="107" viewBox="0 0 202 107" fill="none" xmlns="http://www.w3.org/2000/svg">
<path fill-rule="evenodd" clip-rule="evenodd" d="M31.3437 38.5913C24.5164 60.5774 18.299 77.0823 16.2493 81.753C13.8046 87.3234 8.23683 96.7925 1.94742 107L0 105.804C6.30895 95.5649 11.786 86.2352 14.1551 80.837C16.5349 75.4145 25.2324 53.2284 33.4469 25L35.2595 25.5198L34.1256 25.3747C35.2595 25.5198 35.2595 25.5198 35.2595 25.5198L35.1957 26.019C35.1542 26.3451 35.0934 26.8239 35.0164 27.4341C34.8625 28.6547 34.6438 30.401 34.385 32.5039C33.8673 36.7099 32.9586 42.3799 32.3162 48.0809C31.6735 53.784 31.2981 59.5091 30.9244 63.986C30.7373 66.2265 30.6097 68.1299 30.5638 69.5365C30.5496 69.9697 30.5435 70.3484 30.5452 70.6707C30.8397 70.2563 31.18 69.7076 31.5574 69.0379C32.4138 67.5179 33.3236 65.6337 34.1859 63.8478C34.6019 62.9863 35.0069 62.1476 35.3895 61.3837C37.6298 56.9105 41.3047 46.5834 41.9852 44.5455C42.0263 44.4222 42.2832 42.9983 42.3571 42.8603C42.3909 42.7973 42.4627 42.6711 42.5831 42.5475C42.677 42.451 43.0212 42.1305 43.5655 42.193C44.119 42.2566 44.3814 42.6572 44.4524 42.7806C44.5403 42.9334 44.578 43.0761 44.5942 43.1438C44.63 43.2936 44.6436 43.4484 44.6508 43.5632C44.68 44.0298 44.6532 44.8473 44.6095 45.8251C44.5861 46.3476 44.5569 46.9333 44.5253 47.5687C44.4346 49.3892 43.9829 51.8253 43.9302 54.1396C43.859 57.267 44.2378 60.267 44.565 62.7433C44.7296 63.9884 44.9588 64.9772 45.2466 65.6594C45.5544 66.3889 45.8049 66.4856 45.8345 66.4931C46.3272 66.616 46.9885 66.4058 47.8994 65.3807C48.7764 64.3938 49.6146 62.9388 50.3935 61.3837C50.7781 60.6159 51.1379 59.8451 51.475 59.1186C51.5048 59.0543 51.5345 58.9903 51.5641 58.9265C51.865 58.2777 52.1511 57.6605 52.4119 57.1397C52.6873 56.59 52.9806 56.0512 53.2786 55.6817C53.4135 55.5144 53.6585 55.2396 54.019 55.0884C54.2239 55.0025 54.4959 54.9444 54.8015 55.0022C55.1091 55.0603 55.3458 55.216 55.511 55.3809L55.0945 56.4685C55.1883 56.5621 54.8322 56.7455 55.0595 56.7885C55.2848 56.8311 54.7887 57.2413 54.9045 57.1927C55.0018 57.1519 55.0613 57.1048 55.084 57.0842C55.0782 57.0906 55.07 57.1 55.0595 57.1131C54.9332 57.2696 54.7353 57.6046 54.4569 58.1605C54.2124 58.6487 53.941 59.2338 53.6356 59.8924C53.6072 59.9536 53.5786 60.0154 53.5496 60.0779C53.2124 60.8047 52.8399 61.603 52.4385 62.4044C51.6456 63.9877 50.6976 65.6711 49.6098 66.8953C48.5558 68.0814 47.0737 69.155 45.28 68.7074C44.1665 68.4295 43.5239 67.4563 43.1395 66.5453C42.7352 65.587 42.4732 64.3646 42.2984 63.0419C41.9469 60.3828 41.9135 57.0288 41.9852 53.8795C42.0109 52.7517 42.0504 51.6402 42.0946 50.5873C40.6259 54.7444 38.6122 59.7419 37.2787 62.4044C36.9282 63.1042 36.6976 63.9041 36.2919 64.744C35.4121 66.5654 34.4416 68.5747 33.5501 70.1569C32.9088 71.295 32.231 72.3581 31.5794 72.9861C31.2819 73.2729 30.7818 73.6786 30.1312 73.7065C29.2941 73.7425 28.7802 73.1741 28.5304 72.6755C28.4109 72.4369 28.3616 72.1769 28.3349 71.9994C28.3043 71.7952 28.2854 71.563 28.2739 71.3163C28.251 70.8214 28.2548 70.1922 28.2786 69.4621C28.3265 67.9978 28.4578 66.0495 28.6459 63.7964C29.0224 59.2861 29.6312 53.4956 30.2746 47.7864C30.6311 44.6223 30.9986 41.4804 31.3437 38.5913ZM29.8403 71.4692L29.8438 71.4673L29.8403 71.4692ZM68.0025 50.2179C68.0487 50.184 68.077 50.1563 68.0858 50.1475L66.4691 48.5335C66.5255 48.4773 66.7159 48.2872 67.0106 48.1913C67.1858 48.1342 67.4678 48.0883 67.7826 48.2017C68.105 48.3177 68.3006 48.5423 68.4049 48.7219C68.5719 49.0095 68.5754 49.2964 68.5763 49.3722L68.5763 49.3757C68.5778 49.498 68.566 49.6152 68.5538 49.7073C68.5082 50.0549 68.382 50.581 68.2456 51.1429C68.2269 51.2199 68.2076 51.2989 68.1879 51.3799C67.904 52.5462 67.5233 54.1097 67.2642 55.7908C66.9855 57.5995 66.7498 59.4567 67.0072 61.0303C67.264 62.6004 67.9796 63.7226 69.0088 64.3391C69.5178 64.644 70.292 64.8675 71.3519 64.971C72.3981 65.0732 73.6394 65.0511 75.0186 64.9298C77.7779 64.6873 80.9669 64.0598 84.0232 63.3503C86.1541 62.8555 88.1863 62.3294 89.9513 61.8724C90.7211 61.6732 91.44 61.487 92.0942 61.3224C93.1539 61.0557 94.0656 60.8399 94.7209 60.7288C95.0351 60.6756 95.3658 60.6326 95.6471 60.6414C95.7723 60.6453 96.0138 60.6609 96.2616 60.7717C96.3966 60.8321 96.5856 60.9438 96.7439 61.1473C96.9154 61.3678 96.9999 61.6316 96.9999 61.8941H94.7135C94.7135 62.1209 94.7874 62.3534 94.938 62.547C95.0753 62.7237 95.2332 62.8128 95.3268 62.8547C95.4446 62.9073 95.5387 62.9201 95.5704 62.9226C95.5245 62.9222 95.3829 62.9317 95.1036 62.9791C94.5488 63.0731 94.0504 63.082 92.9845 63.3503C92.3559 63.5085 91.3208 63.876 90.5607 64.0728C88.7851 64.5324 86.7007 65.072 84.5411 65.5734C81.4528 66.2904 78.1401 66.9468 75.2192 67.2035C73.7584 67.3319 72.365 67.3633 71.1293 67.2426C69.9073 67.1232 68.7525 66.8474 67.8325 66.2963C66.0038 65.201 65.178 63.3253 64.8632 61.4003C64.549 59.479 64.7116 57.3441 65.0044 55.4438C65.2791 53.6618 65.6812 52.0109 65.964 50.85C65.9845 50.7658 66.0044 50.6841 66.0236 50.6052C66.173 49.9902 66.2611 49.6068 66.2869 49.4106C66.2897 49.3892 66.2905 49.3785 66.2905 49.3785C66.2905 49.3785 66.2899 49.3872 66.2901 49.4044C66.2904 49.422 66.2917 49.4689 66.3032 49.5333C66.3133 49.59 66.3413 49.7192 66.4269 49.8666C66.5201 50.027 66.7017 50.2389 67.0072 50.3488C67.3052 50.4561 67.5673 50.4108 67.7197 50.3612C67.8651 50.3138 67.962 50.2475 68.0025 50.2179ZM95.5756 62.9227C95.5858 62.923 95.5832 62.9237 95.5704 62.9226L95.5756 62.9227ZM58.3851 65.8173C58.3304 66.0728 58.244 66.4768 58.0234 66.9449L55.9546 65.9731C56.0618 65.7456 56.1015 65.5618 56.1571 65.3036L56.159 65.2948C56.1614 65.2838 56.1639 65.2721 56.1665 65.2598C56.2164 65.0247 56.3151 64.5601 56.6547 64.1572C57.0257 63.7169 57.4823 63.9362 58.0234 63.7964C58.5689 63.6555 59.3572 63.1187 60.3246 63.0391L60.5124 65.3139C59.5724 65.3912 59.0041 65.4766 58.6557 65.5666C58.5454 65.5951 58.4721 65.6204 58.4257 65.639C58.4175 65.6716 58.4069 65.716 58.3942 65.7752C58.3912 65.7887 58.3882 65.8028 58.3851 65.8173Z" fill="#61ACF2"/>
<path d="M119 64.7583C129.751 47.6025 141.679 19.9924 145.909 1L127.79 44.8359C150.747 -13.9546 172.262 5.70206 165.448 21.7042C160.574 33.1498 142.099 43.1277 142.099 43.1277C142.099 43.1277 156.516 44.8359 158.764 60.4259C152.147 81.1834 114.934 65.3962 135.677 63.0002C156.42 60.6041 202.92 75.4 200.938 51.1952M178.744 51.1952C180.437 48.6192 181.368 47.5123 182.892 48.1373M193.022 48.6225C195.397 43.8655 195.799 43.9656 195.913 45.9468" stroke="#6993FF" stroke-width="2" stroke-linecap="round" stroke-linejoin="round"/>
</svg>
