<svg width="117" height="34" viewBox="0 0 117 34" fill="none" xmlns="http://www.w3.org/2000/svg">
<title>There Logo</title>
<path d="M52.0149 8.744L51.7269 12.552L47.6949 12.36H46.7989L46.6389 22.376L46.8309 29H41.6469L41.9349 22.888L41.7749 12.36H40.8149L36.7509 12.552L36.4309 12.168L36.7509 8.36H51.7269L52.0149 8.744ZM63.2959 29L63.5839 20.072C63.5839 18.6 62.9865 17.864 61.7919 17.864C61.0879 17.864 60.2772 18.184 59.3599 18.824L59.2959 22.376L59.5199 29H54.4639L54.7199 22.856L54.5279 6.888L59.5519 6.536L59.3919 16.168H59.5839C60.7572 15.0587 62.0265 14.28 63.3919 13.832C65.0132 13.832 66.2399 14.2053 67.0719 14.952C67.9252 15.6773 68.3305 16.7227 68.2879 18.088L68.1919 22.376L68.3839 29H63.2959ZM83.7131 22.344L75.3291 22.408C75.4785 23.5173 75.8625 24.3387 76.4811 24.872C77.0998 25.4053 77.9745 25.672 79.1051 25.672C80.2358 25.672 81.7291 25.3413 83.5851 24.68L83.9691 24.936L83.2011 28.552C81.4945 29.0853 79.9478 29.352 78.5611 29.352C76.1078 29.352 74.1771 28.6587 72.7691 27.272C71.3825 25.8853 70.6891 23.976 70.6891 21.544C70.6891 19.112 71.3611 17.2027 72.7051 15.816C74.0491 14.408 75.8731 13.704 78.1771 13.704C80.1611 13.704 81.6971 14.2373 82.7851 15.304C83.8945 16.3707 84.4491 17.8533 84.4491 19.752C84.4491 20.3707 84.3851 21.0213 84.2571 21.704L83.7131 22.344ZM80.0651 19.208C80.0651 17.736 79.4251 17 78.1451 17C77.4198 17 76.8225 17.2453 76.3531 17.736C75.8838 18.2053 75.5638 18.888 75.3931 19.784L80.0011 19.656L80.0651 19.208ZM95.8271 13.992C95.9551 13.992 96.2111 14.0133 96.5951 14.056V18.696L96.0831 18.856C95.7845 18.7067 95.3898 18.632 94.8991 18.632C93.7471 18.632 92.6911 19.2507 91.7311 20.488V22.376L91.9551 29H86.8991L87.1551 22.888L86.9311 14.344L91.7631 13.96V16.84H91.9871C92.9898 14.9413 94.2698 13.992 95.8271 13.992ZM110.463 22.344L102.079 22.408C102.228 23.5173 102.612 24.3387 103.231 24.872C103.85 25.4053 104.724 25.672 105.855 25.672C106.986 25.672 108.479 25.3413 110.335 24.68L110.719 24.936L109.951 28.552C108.244 29.0853 106.698 29.352 105.311 29.352C102.858 29.352 100.927 28.6587 99.5191 27.272C98.1325 25.8853 97.4391 23.976 97.4391 21.544C97.4391 19.112 98.1111 17.2027 99.4551 15.816C100.799 14.408 102.623 13.704 104.927 13.704C106.911 13.704 108.447 14.2373 109.535 15.304C110.644 16.3707 111.199 17.8533 111.199 19.752C111.199 20.3707 111.135 21.0213 111.007 21.704L110.463 22.344ZM106.815 19.208C106.815 17.736 106.175 17 104.895 17C104.17 17 103.572 17.2453 103.103 17.736C102.634 18.2053 102.314 18.888 102.143 19.784L106.751 19.656L106.815 19.208Z" fill="url(#paint0_linear)"/>
<path d="M52.0149 8.744L51.7269 12.552L47.6949 12.36H46.7989L46.6389 22.376L46.8309 29H41.6469L41.9349 22.888L41.7749 12.36H40.8149L36.7509 12.552L36.4309 12.168L36.7509 8.36H51.7269L52.0149 8.744ZM63.2959 29L63.5839 20.072C63.5839 18.6 62.9865 17.864 61.7919 17.864C61.0879 17.864 60.2772 18.184 59.3599 18.824L59.2959 22.376L59.5199 29H54.4639L54.7199 22.856L54.5279 6.888L59.5519 6.536L59.3919 16.168H59.5839C60.7572 15.0587 62.0265 14.28 63.3919 13.832C65.0132 13.832 66.2399 14.2053 67.0719 14.952C67.9252 15.6773 68.3305 16.7227 68.2879 18.088L68.1919 22.376L68.3839 29H63.2959ZM83.7131 22.344L75.3291 22.408C75.4785 23.5173 75.8625 24.3387 76.4811 24.872C77.0998 25.4053 77.9745 25.672 79.1051 25.672C80.2358 25.672 81.7291 25.3413 83.5851 24.68L83.9691 24.936L83.2011 28.552C81.4945 29.0853 79.9478 29.352 78.5611 29.352C76.1078 29.352 74.1771 28.6587 72.7691 27.272C71.3825 25.8853 70.6891 23.976 70.6891 21.544C70.6891 19.112 71.3611 17.2027 72.7051 15.816C74.0491 14.408 75.8731 13.704 78.1771 13.704C80.1611 13.704 81.6971 14.2373 82.7851 15.304C83.8945 16.3707 84.4491 17.8533 84.4491 19.752C84.4491 20.3707 84.3851 21.0213 84.2571 21.704L83.7131 22.344ZM80.0651 19.208C80.0651 17.736 79.4251 17 78.1451 17C77.4198 17 76.8225 17.2453 76.3531 17.736C75.8838 18.2053 75.5638 18.888 75.3931 19.784L80.0011 19.656L80.0651 19.208ZM95.8271 13.992C95.9551 13.992 96.2111 14.0133 96.5951 14.056V18.696L96.0831 18.856C95.7845 18.7067 95.3898 18.632 94.8991 18.632C93.7471 18.632 92.6911 19.2507 91.7311 20.488V22.376L91.9551 29H86.8991L87.1551 22.888L86.9311 14.344L91.7631 13.96V16.84H91.9871C92.9898 14.9413 94.2698 13.992 95.8271 13.992ZM110.463 22.344L102.079 22.408C102.228 23.5173 102.612 24.3387 103.231 24.872C103.85 25.4053 104.724 25.672 105.855 25.672C106.986 25.672 108.479 25.3413 110.335 24.68L110.719 24.936L109.951 28.552C108.244 29.0853 106.698 29.352 105.311 29.352C102.858 29.352 100.927 28.6587 99.5191 27.272C98.1325 25.8853 97.4391 23.976 97.4391 21.544C97.4391 19.112 98.1111 17.2027 99.4551 15.816C100.799 14.408 102.623 13.704 104.927 13.704C106.911 13.704 108.447 14.2373 109.535 15.304C110.644 16.3707 111.199 17.8533 111.199 19.752C111.199 20.3707 111.135 21.0213 111.007 21.704L110.463 22.344ZM106.815 19.208C106.815 17.736 106.175 17 104.895 17C104.17 17 103.572 17.2453 103.103 17.736C102.634 18.2053 102.314 18.888 102.143 19.784L106.751 19.656L106.815 19.208Z" fill="url(#paint1_linear)" fill-opacity="0.85"/>
<path fill-rule="evenodd" clip-rule="evenodd" d="M15.2636 3.00265C14.5105 2.94855 13.8439 3.72873 13.7747 4.74521L12.7097 20.3896C12.6527 21.2276 13.0195 21.9646 13.572 22.2279C13.8118 22.4005 14.1036 22.533 14.4292 22.6041L29.7488 25.9491C30.7442 26.1664 31.6784 25.7277 31.8354 24.9691L31.9775 24.2823C32.1344 23.5238 31.4547 22.7326 30.4594 22.5153L16.2027 19.4024L17.1838 4.9901C17.2529 3.97361 16.6985 3.10573 15.9454 3.05163L15.2636 3.00265ZM7.23867 13.217C7.3383 12.2432 8.08881 11.5261 8.91498 11.6153C9.74115 11.7045 10.3301 12.5662 10.2305 13.54L9.15334 24.0674L19.3726 27.2769C20.3065 27.5702 20.8667 28.4695 20.6238 29.2856C20.3809 30.1016 19.427 30.5254 18.4931 30.2321L7.50157 26.7801C7.23001 26.6948 6.99004 26.5583 6.79223 26.3875C6.29526 26.057 5.99233 25.3982 6.06601 24.678L7.23867 13.217ZM0.804784 20.5286C0.887275 19.7224 1.57204 19.1355 2.33426 19.2178C3.09647 19.3001 3.6475 20.0204 3.565 20.8266L2.86994 27.6199L9.39072 30.3262C10.1393 30.6369 10.5133 31.4805 10.2262 32.2104C9.93912 32.9404 9.09957 33.2803 8.35103 32.9696L1.12255 29.9696C1.02045 29.9272 0.92531 29.8749 0.83787 29.8144C0.293484 29.5696 -0.0589561 28.9704 0.00817655 28.3143L0.804784 20.5286Z" fill="url(#paint2_linear)"/>
<path fill-rule="evenodd" clip-rule="evenodd" d="M15.2636 3.00265C14.5105 2.94855 13.8439 3.72873 13.7747 4.74521L12.7097 20.3896C12.6527 21.2276 13.0195 21.9646 13.572 22.2279C13.8118 22.4005 14.1036 22.533 14.4292 22.6041L29.7488 25.9491C30.7442 26.1664 31.6784 25.7277 31.8354 24.9691L31.9775 24.2823C32.1344 23.5238 31.4547 22.7326 30.4594 22.5153L16.2027 19.4024L17.1838 4.9901C17.2529 3.97361 16.6985 3.10573 15.9454 3.05163L15.2636 3.00265ZM7.23867 13.217C7.3383 12.2432 8.08881 11.5261 8.91498 11.6153C9.74115 11.7045 10.3301 12.5662 10.2305 13.54L9.15334 24.0674L19.3726 27.2769C20.3065 27.5702 20.8667 28.4695 20.6238 29.2856C20.3809 30.1016 19.427 30.5254 18.4931 30.2321L7.50157 26.7801C7.23001 26.6948 6.99004 26.5583 6.79223 26.3875C6.29526 26.057 5.99233 25.3982 6.06601 24.678L7.23867 13.217ZM0.804784 20.5286C0.887275 19.7224 1.57204 19.1355 2.33426 19.2178C3.09647 19.3001 3.6475 20.0204 3.565 20.8266L2.86994 27.6199L9.39072 30.3262C10.1393 30.6369 10.5133 31.4805 10.2262 32.2104C9.93912 32.9404 9.09957 33.2803 8.35103 32.9696L1.12255 29.9696C1.02045 29.9272 0.92531 29.8749 0.83787 29.8144C0.293484 29.5696 -0.0589561 28.9704 0.00817655 28.3143L0.804784 20.5286Z" fill="url(#paint3_linear)" fill-opacity="0.85"/>
<defs>
<linearGradient id="paint0_linear" x1="12.1875" y1="31.9096" x2="28.8351" y2="-1.29802" gradientUnits="userSpaceOnUse">
<stop stop-color="white" stop-opacity="0.86"/>
<stop offset="1" stop-color="white"/>
</linearGradient>
<linearGradient id="paint1_linear" x1="87.2308" y1="-8.5094" x2="76.2729" y2="41.7753" gradientUnits="userSpaceOnUse">
<stop stop-color="#9DD6FF"/>
<stop offset="1" stop-color="#0057FF"/>
</linearGradient>
<linearGradient id="paint2_linear" x1="-7" y1="32.9998" x2="11.9999" y2="17.9997" gradientUnits="userSpaceOnUse">
<stop stop-color="white" stop-opacity="0.86"/>
<stop offset="1" stop-color="white"/>
</linearGradient>
<linearGradient id="paint3_linear" x1="20.9231" y1="-5.0001" x2="0.000370472" y2="33" gradientUnits="userSpaceOnUse">
<stop stop-color="#9DD6FF"/>
<stop offset="1" stop-color="#0057FF"/>
</linearGradient>
</defs>
</svg>
