<svg width="25" height="25" viewBox="0 0 25 25" fill="none" xmlns="http://www.w3.org/2000/svg">
<rect width="25" height="25" rx="6" fill="#363636"/>
<path d="M21.367 8.13399C20.7475 8.41317 20.086 8.60336 19.3895 8.6902C20.0993 8.25169 20.6453 7.56056 20.9036 6.73593C20.2379 7.13425 19.5001 7.4242 18.7148 7.58568C18.0876 6.89741 17.1937 6.4668 16.2012 6.4668C14.2993 6.4668 12.7573 8.04787 12.7573 9.99568C12.7573 10.2756 12.7888 10.5447 12.8462 10.8024C9.98333 10.6639 7.44594 9.25431 5.74781 7.12348C5.44892 7.64166 5.28163 8.2438 5.28163 8.89977C5.28163 10.127 5.8906 11.2057 6.81316 11.8394C6.24828 11.8208 5.71701 11.6614 5.25363 11.3973V11.4411C5.25363 13.1528 6.43868 14.5803 8.01571 14.9054C7.72662 14.9851 7.42144 15.0281 7.10855 15.0281C6.88876 15.0281 6.67807 15.0066 6.46738 14.9664C6.90906 16.3681 8.1788 17.3901 9.69004 17.4188C8.51409 18.3654 7.02385 18.9295 5.41882 18.9295C5.14583 18.9295 4.87354 18.913 4.59985 18.8814C6.13209 19.8819 7.93731 20.4668 9.88953 20.4668C16.2271 20.4668 19.6884 15.087 19.6884 10.4292C19.6884 10.2792 19.6884 10.1277 19.6779 9.97702C20.3506 9.48253 20.9379 8.85743 21.3999 8.14835L21.367 8.13399Z" fill="white"/>
</svg>
